<?xml version="1.0" encoding="UTF-8"?>
<svg width="2235px" height="153px" viewBox="0 0 2235 153" version="1.1" xmlns="http://www.w3.org/2000/svg" xmlns:xlink="http://www.w3.org/1999/xlink">
    <!-- Generator: Sketch 42 (36781) - http://www.bohemiancoding.com/sketch -->
    <title>Group 5</title>
    <desc>Created with Sketch.</desc>
    <defs></defs>
    <g id="Page-1" stroke="none" stroke-width="1" fill="none" fill-rule="evenodd">
        <g id="Group-7" transform="translate(-31.000000, 0.000000)">
            <g id="Group-6">
                <g id="Group-5" transform="translate(31.000000, 0.000000)">
                    <g id="Group">
                        <path d="M244.556739,21.3633333 C240.947403,23.6640115 239.142762,27.1423656 239.142762,31.7985 C239.142762,36.4546344 240.947403,40.0151543 244.556739,42.4801667 C248.166075,44.945179 255.84947,47.6018746 267.607155,50.4503333 C279.36484,53.298792 288.223986,57.2975298 294.184859,62.4466667 C300.145731,67.5958035 303.126123,75.1824499 303.126123,85.2068333 C303.126123,95.2312168 299.352783,103.365635 291.80599,109.610333 C284.259197,115.855031 274.361015,118.977333 262.111148,118.977333 C244.173843,118.977333 228.260191,112.787506 214.369717,100.407667 L226.51015,85.782 C238.103774,95.8611615 250.134713,100.900667 262.603328,100.900667 C268.837635,100.900667 273.786726,99.5586245 277.450749,96.8745 C281.114772,94.1903755 282.946755,90.6298555 282.946755,86.1928333 C282.946755,81.7558111 281.224144,78.3048457 277.778869,75.8398333 C274.333593,73.374821 268.400153,71.1289546 259.978369,69.1021667 C251.556586,67.0753788 245.158314,65.2129529 240.783361,63.5148333 C236.408409,61.8167137 232.525696,59.5982359 229.135108,56.8593333 C222.353932,51.7101965 218.963394,43.8222754 218.963394,33.1953333 C218.963394,22.5683913 222.818763,14.3791954 230.529617,8.6275 C238.240471,2.87580457 247.783193,0 259.15807,0 C266.486115,0 273.759365,1.20509906 280.978037,3.61533333 C288.196708,6.02556761 294.430922,9.42175587 299.680865,13.804 L289.345092,28.4296667 C285.954503,25.3620958 281.360872,22.8423432 275.56406,20.8703333 C269.767248,18.8983235 264.052552,17.9123333 258.4198,17.9123333 C252.787049,17.9123333 248.166075,19.0626552 244.556739,21.3633333 Z" id="S" fill="#1B9896"></path>
                        <path d="M335.281864,90.865 L323.797671,116.994 L303.126123,116.994 L353.656572,2.125 L374.32812,2.125 L424.858569,116.994 L404.187022,116.994 L392.702829,90.865 L335.281864,90.865 Z M384.827953,72.9526667 L363.992346,25.6246667 L343.156739,72.9526667 L384.827953,72.9526667 Z" id="A" fill="#1B9896"></path>
                        <g id="Group-2" fill="#1B9896">
                            <polygon id="I" points="34.6505824 1.41666667 54.0096506 1.41666667 54.0096506 116.285667 34.6505824 116.285667"></polygon>
                            <polyline id="I" points="88.756406 97.0416667 88.756406 116.433 0.818429891 116.433 0.818429891 97.0416667"></polyline>
                            <polyline id="I" points="87.9379761 0.559959635 87.9379761 19.951293 0 19.951293 0 0.559959635"></polyline>
                        </g>
                        <path d="M147.423509,100.496888 C142.760282,97.6909586 101.830283,72.2544135 101.830283,43.3957996 C101.830283,23.4878521 110.023299,10.625 129.914746,10.625 C136.024322,10.625 147.149201,18.04548 151.704368,22.3168213 C156.259534,18.04548 167.384413,10.625 173.493989,10.625 C193.385436,10.625 201.578452,23.4878521 201.578452,43.3957996 C201.578452,72.2544135 160.648453,97.6909586 155.985226,100.496888 C154.663563,101.287878 153.183965,101.679209 151.704368,101.679209 C150.22477,101.679209 148.745172,101.287878 147.423509,100.496888 Z" id="Fill-180" stroke="#CB272B" stroke-width="19"></path>
                    </g>
                    <path d="M1437.9754,102.46847 C1436.02566,105.340379 1433.89386,107.792552 1431.58,109.825 C1429.06665,112.048344 1426.09418,113.546663 1422.6625,114.32 C1419.23082,115.093337 1415.87168,115.14167 1412.585,114.465 C1409.10498,113.594996 1406.08418,112.000012 1403.5225,109.68 C1402.17107,108.45606 1401.0685,107.030352 1400.2148,105.402862 C1396.27141,112.087462 1391.54985,115.59148 1386.05,115.915 C1383.05332,116.108334 1380.44334,115.214177 1378.22,113.2325 C1375.99666,111.250823 1374.47417,108.930847 1373.6525,106.2725 C1372.83083,103.614153 1372.75833,99.8200246 1373.435,94.89 C1373.82167,91.5066497 1374.64333,87.3016918 1375.9,82.275 C1376.28667,81.018327 1376.77,79.1333459 1377.35,76.62 L1378.945,70.24 C1375.75498,70.0466657 1372.66168,69.6600029 1369.665,69.08 L1369.085,72.27 C1368.795,73.5266729 1368.55333,74.4449971 1368.36,75.025 C1368.26333,75.4116686 1368.11833,75.8466642 1367.925,76.33 L1366.92307,79.1926468 C1366.91991,79.253112 1366.91555,79.3138964 1366.91,79.375 C1366.42666,82.3716816 1365.41167,86.1899768 1363.865,90.83 C1362.31833,95.4700232 1360.48168,99.6266483 1358.355,103.3 C1355.45499,108.326692 1352.31335,111.709991 1348.93,113.45 C1344.09664,115.866679 1339.45669,114.996687 1335.01,110.84 C1333.36666,109.293326 1332.20667,107.118347 1331.53,104.315 C1328.04998,109.72836 1323.89336,112.869996 1319.06,113.74 C1313.35664,114.706671 1309.24835,112.386695 1306.735,106.78 C1306.37193,105.968425 1306.04896,105.088435 1305.76611,104.140027 C1305.55976,104.541385 1305.35105,104.938043 1305.14,105.33 C1300.78998,112.966705 1295.2317,116.640001 1288.465,116.35 C1285.37165,116.156666 1282.27835,115.093343 1279.185,113.16 C1274.54498,116.736685 1269.08336,117.84834 1262.8,116.495 C1256.50211,115.290992 1252.37828,111.646836 1250.42839,105.562429 C1244.11181,114.283229 1236.63574,117.250723 1228,114.465 L1225.535,113.74 L1222.2,112.58 C1220.55666,113.836673 1218.72001,114.754997 1216.69,115.335 C1212.14664,116.591673 1207.31336,116.060012 1202.19,113.74 C1199.02402,112.354883 1196.44312,110.587247 1194.44726,108.437066 C1191.17083,111.946547 1187.13009,114.245845 1182.325,115.335 C1172.94829,117.558344 1166.08502,115.383366 1161.735,108.81 C1158.25498,103.686641 1157.14333,96.920042 1158.4,88.51 C1159.46334,80.6799608 1162.02498,74.1066932 1166.085,68.79 C1168.30834,65.8899855 1170.86999,63.7391737 1173.77,62.3375 C1176.67001,60.9358263 1179.76332,60.7666613 1183.05,61.83 C1188.56003,63.763343 1191.46,67.7266367 1191.75,73.72 C1192.04,78.3600232 1190.63835,83.0483096 1187.545,87.785 C1184.35498,92.7150246 1180.39169,95.9533256 1175.655,97.5 C1172.36832,98.5633386 1169.13002,98.6116715 1165.94,97.645 C1166.23,100.448347 1166.95499,102.719991 1168.115,104.46 C1170.53168,108.036685 1174.6883,109.14834 1180.585,107.795 C1184.67364,106.813726 1188.00134,104.414429 1190.56815,100.597052 C1190.53611,100.044937 1190.54339,99.4717532 1190.59,98.8775 C1190.78333,96.4124877 1191.94332,94.3583416 1194.07,92.715 C1194.25714,92.5694501 1194.44626,92.4316029 1194.63737,92.3014584 C1195.37192,90.3987583 1196.14946,88.2166248 1196.97,85.755 C1197.84,83.1449869 1198.61333,80.9216758 1199.29,79.085 C1199.5623,78.4042608 1199.9784,77.8553571 1200.53832,77.4382816 C1200.84313,76.7403243 1201.87702,74.2925803 1203.64,70.095 L1205.67,65.455 C1205.96,64.6816628 1206.20167,64.1016686 1206.395,63.715 C1206.58833,63.5216657 1206.73333,63.3283343 1206.83,63.135 C1206.92667,62.9416657 1207.02333,62.7966671 1207.12,62.7 C1207.41,62.2166642 1207.79666,61.8300014 1208.28,61.54 C1210.40668,60.1866599 1212.62999,60.3799913 1214.95,62.12 C1216.11001,62.9900044 1217.31833,64.3433242 1218.575,66.18 C1220.50834,69.1766817 1222.44166,73.2366411 1224.375,78.36 C1226.30834,83.1933575 1227.71,87.7849782 1228.58,92.135 C1229.74001,97.3550261 1229.83667,101.124988 1228.87,103.445 C1228.48333,104.411672 1228.09667,105.329996 1227.71,106.2 L1230.32,106.925 C1235.63669,108.665009 1240.42165,106.345032 1244.675,99.965 C1246.65803,97.0667282 1248.94191,92.2729367 1251.5267,85.5835266 C1252.01966,84.0643509 1252.57162,82.5873286 1253.18259,81.1524575 C1253.34235,80.7115581 1253.50315,80.2640723 1253.665,79.81 C1253.81979,79.2940176 1254.07098,78.8468926 1254.41857,78.4686217 C1255.98595,75.3123557 1257.86142,72.376158 1260.045,69.66 C1264.49169,64.1499725 1269.22831,60.9600044 1274.255,60.09 C1275.70501,59.8966657 1276.91333,60.3799942 1277.88,61.54 L1279.33,62.12 C1281.94001,63.0866715 1284.11499,65.1166512 1285.855,68.21 C1288.85168,73.4300261 1290.15667,80.0999594 1289.77,88.22 C1289.48,95.7600377 1287.74002,102.091641 1284.55,107.215 C1286.00001,107.988337 1287.44999,108.423333 1288.9,108.52 C1292.38002,108.713334 1295.47332,106.393358 1298.18,101.56 C1298.85667,100.399994 1299.46083,99.2400058 1299.9925,98.08 C1300.52417,96.9199942 1300.935,95.9533372 1301.225,95.18 C1301.515,94.4066628 1301.85333,93.3191737 1302.24,91.9175 C1302.62667,90.5158263 1302.91667,89.5250029 1303.11,88.945 C1303.30333,88.3649971 1303.59333,87.1808423 1303.98,85.3925 C1304.3355,83.7483289 1304.60928,82.574002 1304.80136,81.8694907 C1305.35574,76.2912374 1306.33862,70.7714295 1307.75,65.31 C1308.04,64.2466613 1308.64416,63.4491693 1309.5625,62.9175 C1310.48084,62.3858307 1311.47166,62.2649985 1312.535,62.555 C1313.59834,62.8450014 1314.39583,63.4491621 1314.9275,64.3675 C1315.45917,65.2858379 1315.58,66.2766613 1315.29,67.34 C1313.25999,75.2667063 1312.19667,83.3866251 1312.1,91.7 C1312.1,97.0166932 1312.67999,100.931654 1313.84,103.445 C1314.71,105.378343 1316.06332,106.200001 1317.9,105.91 C1321.18668,105.426664 1324.18332,102.188363 1326.89,96.195 C1328.72668,92.0383125 1330.36999,86.6250333 1331.82,79.955 C1331.82,79.6649985 1332.35166,76.620029 1333.415,70.82 C1333.705,68.9833241 1333.94667,67.7750029 1334.14,67.195 C1334.14,66.8083314 1334.18833,66.5183343 1334.285,66.325 C1334.47833,65.8416642 1334.76833,65.4066686 1335.155,65.02 C1335.92834,64.1499956 1336.94333,63.715 1338.2,63.715 C1339.65001,63.8116671 1340.76166,64.488327 1341.535,65.745 L1341.97,67.34 L1341.97,68.79 C1341.87333,69.7566715 1341.48667,72.4633111 1340.81,76.91 C1339.94,81.6466903 1339.36,85.5133183 1339.07,88.51 C1338.58666,93.1500232 1338.49,96.8233198 1338.78,99.53 C1338.97333,102.430014 1339.45666,104.266663 1340.23,105.04 C1342.06668,106.780009 1343.80666,107.215004 1345.45,106.345 C1347.38334,105.378328 1349.41332,103.058352 1351.54,99.385 C1353.37668,96.194984 1354.99583,92.497521 1356.3975,88.2925 C1357.10992,86.1552387 1357.69123,84.2364978 1358.14144,82.5362638 C1358.01698,81.8691764 1358.08816,81.2020917 1358.355,80.535 C1358.58378,79.8486678 1358.80714,79.1894119 1359.02509,78.557228 C1359.04441,78.4414609 1359.06271,78.3273849 1359.08,78.215 C1359.18309,77.6479941 1359.38238,77.1428352 1359.67787,76.6995194 C1359.69612,76.6486356 1359.71433,76.5979624 1359.7325,76.5475 C1360.1675,75.3391606 1360.48167,74.5175022 1360.675,74.0825 C1360.86833,73.6474978 1361.01333,73.2366686 1361.11,72.85 C1361.20667,72.4633314 1361.35167,71.7383386 1361.545,70.675 L1362.705,65.455 C1362.705,65.2616657 1362.75333,65.0683343 1362.85,64.875 C1362.85,64.3916642 1362.89833,63.9566686 1362.995,63.57 C1363.18833,62.5066613 1363.72,61.6850029 1364.59,61.105 C1365.46,60.5249971 1366.42666,60.3799985 1367.49,60.67 C1371.55002,61.6366715 1375.56165,62.2649985 1379.525,62.555 L1379.67,62.555 C1379.86333,62.4583328 1380.29833,62.41 1380.975,62.41 C1383.29501,62.1199985 1385.03499,62.7966584 1386.195,64.44 C1386.775,65.2133372 1387.065,66.1799942 1387.065,67.34 C1387.065,67.8233357 1387.01667,68.4516628 1386.92,69.225 C1386.82333,70.0950043 1386.58167,71.3999913 1386.195,73.14 L1384.745,78.505 C1384.06833,81.0183459 1383.585,82.903327 1383.295,84.16 C1382.13499,88.8966903 1381.36167,92.8116512 1380.975,95.905 C1380.395,99.6750188 1380.395,102.381658 1380.975,104.025 C1381.36167,105.281673 1381.99,106.296663 1382.86,107.07 C1383.73,107.843337 1384.69666,108.181667 1385.76,108.085 C1389.24002,107.891666 1392.52665,104.460033 1395.62,97.79 C1396.53437,95.8515431 1397.37954,93.7954737 1398.15552,91.6217822 C1398.44317,88.6910058 1399.12049,85.6962521 1400.1875,82.6375 C1402.36251,76.4024688 1405.28665,71.2550203 1408.96,67.195 C1413.40669,62.4583096 1417.70831,60.6216613 1421.865,61.685 C1426.50502,63.0383401 1429.21166,67.8232922 1429.985,76.04 C1430.08167,77.1033386 1429.79167,78.0458292 1429.115,78.8675 C1428.43833,79.6891708 1427.54417,80.1483328 1426.4325,80.245 C1425.32083,80.3416671 1424.35417,80.05167 1423.5325,79.375 C1422.71083,78.6983299 1422.25167,77.7800058 1422.155,76.62 C1421.96167,74.686657 1421.67167,73.0916729 1421.285,71.835 C1420.89833,70.578327 1420.56,69.8533343 1420.27,69.66 L1419.69,69.225 C1418.62666,68.9349985 1416.93501,70.0466541 1414.615,72.56 C1412.02576,75.4081639 1409.8989,79.0268676 1408.23438,83.4162001 C1407.61055,86.181398 1406.91013,88.8212353 1406.13311,91.335723 C1405.78235,94.0318242 1405.85465,96.6182412 1406.35,99.095 C1407.12334,103.15502 1409.78164,105.716661 1414.325,106.78 C1419.06169,107.843339 1423.07332,106.925014 1426.36,104.025 C1431.50815,99.4580939 1435.6577,92.1452873 1438.80874,82.0864084 C1439.02191,81.2980389 1439.25349,80.5251224 1439.5035,79.7676585 C1439.77022,78.8368051 1440.02906,77.8842508 1440.28,76.91 C1440.49107,76.1360651 1440.86857,75.5029607 1441.4125,75.0106776 C1442.48472,72.7747407 1443.75055,70.7011845 1445.21,68.79 C1447.43334,65.8899855 1449.99499,63.7391737 1452.895,62.3375 C1455.79501,60.9358263 1458.88832,60.7666613 1462.175,61.83 C1467.68503,63.763343 1470.585,67.7266367 1470.875,73.72 C1471.165,78.3600232 1469.76335,83.0483096 1466.67,87.785 C1463.47998,92.7150246 1459.51669,95.9533256 1454.78,97.5 C1451.49332,98.5633386 1448.25502,98.6116715 1445.065,97.645 C1445.355,100.448347 1446.07999,102.719991 1447.24,104.46 C1449.65668,108.036685 1453.8133,109.14834 1459.71,107.795 C1464.54336,106.634994 1468.31332,103.493359 1471.02,98.37 C1471.98667,96.5333241 1472.85666,94.6241766 1473.63,92.6425 C1474.40334,90.6608234 1475.225,88.365013 1476.095,85.755 C1476.965,83.1449869 1477.73833,80.9216758 1478.415,79.085 C1478.80167,78.1183285 1479.47833,77.4175022 1480.445,76.9825 C1481.41167,76.5474978 1482.40249,76.5233314 1483.4175,76.91 C1484.43251,77.2966686 1485.1575,77.9733285 1485.5925,78.94 C1486.0275,79.9066715 1486.05167,80.9216613 1485.665,81.985 L1483.635,88.075 C1482.66833,90.7816802 1481.75,93.2949884 1480.88,95.615 C1480.01,97.9350116 1479.04334,100.10999 1477.98,102.14 C1474.20998,109.293369 1468.70004,113.691658 1461.45,115.335 C1452.07329,117.558344 1445.21002,115.383366 1440.86,108.81 C1439.57611,106.919824 1438.61458,104.805984 1437.9754,102.46847 Z M1206.40154,82.4003796 L1204.51,88.075 C1204.12613,89.1498362 1203.74988,90.194179 1203.38126,91.2080333 C1205.52012,91.8219821 1207.87801,93.0492935 1210.455,94.89 C1212.00167,96.146673 1213.88666,97.7899899 1216.11,99.82 C1218.04334,101.656676 1219.13083,102.671666 1219.3725,102.865 C1219.61417,103.058334 1219.88,103.251666 1220.17,103.445 C1220.75,102.574996 1221.23333,101.608339 1221.62,100.545 C1221.91,99.6749956 1221.66834,97.4033517 1220.895,93.73 C1220.12166,89.863314 1218.86501,85.6583561 1217.125,81.115 C1215.38499,76.4749768 1213.69334,72.9466787 1212.05,70.53 L1210.89,73.14 C1208.76332,78.1666918 1207.60333,80.8249986 1207.41,81.115 C1207.15048,81.6340342 1206.81433,82.0624931 1206.40154,82.4003796 Z M994.044319,106.309346 C992.141575,109.247292 990.521818,111.289156 989.185,112.435 C986.961656,114.271676 984.013352,115.383331 980.34,115.77 C977.246651,116.060001 974.588344,115.431674 972.365,113.885 C970.431657,112.53166 968.981671,110.50168 968.015,107.795 C966.758327,104.41165 966.178333,99.2400348 966.275,92.28 C966.371667,91.4099957 966.468333,89.0900189 966.565,85.32 C966.661667,81.5499812 966.71,78.7466759 966.71,76.91 C966.613333,74.6866556 966.420001,72.9950058 966.13,71.835 C965.936666,71.0616628 965.743334,70.5300015 965.55,70.24 C965.163331,70.4333343 964.63167,70.8199971 963.955,71.4 C962.118324,72.8500073 960.088344,75.4116483 957.865,79.085 C956.028324,82.1783488 954.288342,85.3683169 952.645,88.655 C951.098326,92.0383503 950.131669,94.3583271 949.745,95.615 C949.551666,96.0983358 949.358334,96.8233285 949.165,97.79 C948.48833,101.85002 947.763337,105.813314 946.99,109.68 C946.99,110.066669 946.941667,110.356666 946.845,110.55 C946.845,110.936669 946.748334,111.323331 946.555,111.71 C946.361666,112.000001 946.120001,112.289999 945.83,112.58 C944.47666,113.93334 942.978342,114.223337 941.335,113.45 C940.271661,112.966664 939.595001,112.145006 939.305,110.985 C939.208333,110.791666 939.16,110.550001 939.16,110.26 L939.16,109.978549 C938.089805,111.237819 937.026473,112.249968 935.97,113.015 C933.746656,114.658342 931.523344,115.335001 929.3,115.045 C926.883321,114.851666 924.708343,113.643344 922.775,111.42 C921.648412,110.11553 920.812791,108.301899 920.268129,105.979084 C917.764729,110.099638 914.902881,113.049081 911.6825,114.8275 C908.44415,116.615842 905.13335,116.881673 901.75,115.625 C898.753318,114.464994 896.288343,112.290016 894.355,109.1 C893.396003,107.434374 892.62149,105.623816 892.031455,103.668309 C891.74718,104.231289 891.458362,104.785185 891.165,105.33 C886.814978,112.966705 881.2567,116.640001 874.49,116.35 C871.396651,116.156666 868.303349,115.093343 865.21,113.16 C860.569977,116.736685 855.108365,117.84834 848.825,116.495 C842.251634,115.238327 838.046676,111.323366 836.21,104.75 C834.85666,99.5299739 835.19499,93.4883677 837.225,86.625 C839.158343,80.2449681 842.106647,74.5900247 846.07,69.66 C850.516689,64.1499725 855.253308,60.9600044 860.28,60.09 C861.730007,59.8966657 862.938328,60.3799942 863.905,61.54 L865.355,62.12 C867.965013,63.0866715 870.139991,65.1166512 871.88,68.21 C874.876682,73.4300261 876.181669,80.0999594 875.795,88.22 C875.504999,95.7600377 873.765016,102.091641 870.575,107.215 C872.025007,107.988337 873.474993,108.423333 874.925,108.52 C878.405017,108.713334 881.49832,106.393358 884.205,101.56 C884.88167,100.399994 885.485831,99.2400058 886.0175,98.08 C886.549169,96.9199942 886.959999,95.9533372 887.25,95.18 C887.540001,94.4066628 887.878331,93.3191737 888.265,91.9175 C888.651669,90.5158263 888.941666,89.5250029 889.135,88.945 C889.328334,88.3649971 889.618331,87.1808423 890.005,85.3925 C890.296849,84.0427 890.533625,83.0095641 890.715332,82.2930763 C891.209486,75.6400767 892.32604,68.0940701 894.065,59.655 C890.874984,59.3649985 887.491685,58.7850043 883.915,57.915 C882.851661,57.7216657 882.030003,57.1658379 881.45,56.2475 C880.869997,55.3291621 880.700832,54.3383386 880.9425,53.275 C881.184168,52.2116613 881.764162,51.3900029 882.6825,50.81 C883.600838,50.2299971 884.591661,50.0849985 885.655,50.375 C889.231685,51.1483372 892.566651,51.6799985 895.66,51.97 C897.496676,44.0432937 899.719987,35.6333778 902.33,26.74 C902.620001,25.7733285 903.248329,25.0241693 904.215,24.4925 C905.181671,23.9608307 906.172495,23.8399985 907.1875,24.13 C908.202505,24.4200014 908.975831,25.0483285 909.5075,26.015 C910.039169,26.9816715 910.160001,27.9966613 909.87,29.06 C907.453321,36.9867063 905.423342,44.6232966 903.78,51.97 C906.873349,51.7766657 910.208315,51.2933372 913.785,50.52 C914.848339,50.2299985 915.839162,50.3749971 916.7575,50.955 C917.675838,51.5350029 918.255832,52.3566613 918.4975,53.42 C918.739168,54.4833386 918.570003,55.4741621 917.99,56.3925 C917.409997,57.3108379 916.588339,57.8666657 915.525,58.06 C910.78831,59.1233386 906.293355,59.7516657 902.04,59.945 C898.753317,75.8950797 897.641661,88.2682893 898.705,97.065 C899.091669,100.255016 899.840828,102.792491 900.9525,104.6775 C902.064172,106.562509 903.248327,107.746664 904.505,108.23 C907.405015,109.293339 910.449984,107.166693 913.64,101.85 C917.120017,96.049971 919.87499,87.7850536 921.905,77.055 C921.907519,77.0457636 921.91006,77.0365437 921.912623,77.0273402 C922.003736,76.4686117 922.097861,75.8978317 922.195,75.315 C923.065004,70.0949739 923.548333,67.14667 923.645,66.47 C923.838334,65.3099942 924.345829,64.4158365 925.1675,63.7875 C925.989171,63.1591635 926.955828,62.9174993 928.0675,63.0625 C929.179172,63.2075007 930.049164,63.6908292 930.6775,64.5125 C931.305836,65.3341708 931.571667,66.2766613 931.475,67.34 C931.378333,68.1133372 930.895004,71.1099739 930.025,76.33 C929.947906,76.7583014 929.872709,77.1820479 929.79941,77.6012396 C929.812732,77.8943059 929.791262,78.1955592 929.735,78.505 C929.581671,79.2780344 929.424753,80.0398792 929.264246,80.7905343 C928.777719,83.8252899 928.402972,86.5917651 928.14,89.09 C927.559997,93.9233575 927.318333,97.7416526 927.415,100.545 C927.608334,103.638349 927.994997,105.52333 928.575,106.2 C929.155003,106.87667 929.638331,107.263333 930.025,107.36 C930.315001,107.36 930.749997,107.166669 931.33,106.78 C933.166676,105.42666 935.244988,102.526689 937.565,98.08 C939.058013,95.1588874 940.834346,90.9519014 942.894024,85.4589765 C943.453532,80.4825495 943.900523,75.4579072 944.235,70.385 C944.331667,69.3216614 944.790829,68.4275036 945.6125,67.7025 C946.434171,66.9774964 947.376661,66.6633329 948.44,66.76 C949.503339,66.8566672 950.397496,67.3158292 951.1225,68.1375 C951.847504,68.9591708 952.161667,69.9016614 952.065,70.965 C951.968333,72.0283387 951.92,73.0433285 951.92,74.01 C954.336679,70.143314 956.608323,67.2916759 958.735,65.455 C962.891687,61.8783155 966.66165,61.3466541 970.045,63.86 C971.785009,65.116673 972.99333,67.0983198 973.67,69.805 C974.153336,71.6416759 974.443333,73.9616527 974.54,76.765 C974.54,78.5050087 974.467501,81.3566469 974.3225,85.32 C974.177499,89.2833532 974.105,91.6516628 974.105,92.425 C974.008333,98.3216962 974.443328,102.526654 975.41,105.04 C975.796669,106.200006 976.304164,106.997498 976.9325,107.4325 C977.560836,107.867502 978.503327,108.036667 979.76,107.94 C981.693343,107.746666 983.143328,107.263337 984.11,106.49 C984.78667,105.81333 985.898326,104.266679 987.445,101.85 C989.439821,98.7670947 991.349564,95.0038284 993.174278,90.5601005 C993.540625,88.9848255 993.994137,87.4236144 994.534817,85.8764644 L994.55,85.755 C994.565438,85.7395615 994.58026,85.7235067 994.594466,85.7068355 C995.339453,83.6012978 996.246096,81.5218372 997.314397,79.4684468 L998.32,77.055 C998.637278,76.4204432 999.058688,75.9108543 999.584236,75.5262276 C1000.05883,74.7755512 1000.55575,74.0284754 1001.075,73.285 C1005.61836,66.7116338 1010.35498,62.8450058 1015.285,61.685 C1018.57168,60.8149956 1021.51999,61.2983241 1024.13,63.135 C1026.25668,64.5850072 1027.99666,66.8083183 1029.35,69.805 C1029.44667,69.805 1029.54333,69.8533328 1029.64,69.95 C1030.02667,70.3366686 1030.31667,70.7233314 1030.51,71.11 L1030.945,72.27 L1031.09,72.56 L1031.09,72.995 C1031.86334,81.405042 1032.00834,93.0532589 1031.525,107.94 C1036.93836,102.429972 1040.75666,97.1616918 1042.98,92.135 C1043.17333,91.7483314 1043.51166,90.2016802 1043.995,87.495 L1044.285,85.175 C1044.38167,84.4016628 1044.47833,83.67667 1044.575,83 C1044.67167,82.3233299 1044.72,81.9366671 1044.72,81.84 C1044.91333,80.7766613 1045.445,79.9308365 1046.315,79.3025 C1047.185,78.6741635 1048.15166,78.4324993 1049.215,78.5775 C1050.27834,78.7225007 1051.12416,79.2299956 1051.7525,80.1 C1052.38084,80.9700043 1052.64667,81.9366613 1052.55,83 C1052.55,83.0966671 1052.50167,83.4833299 1052.405,84.16 C1052.30833,84.83667 1052.1875,85.5858292 1052.0425,86.4075 C1051.8975,87.2291708 1051.77667,87.9783299 1051.68,88.655 C1051.1,92.1350174 1050.61667,94.3583285 1050.23,95.325 C1048.39332,99.3850203 1045.71085,103.541645 1042.1825,107.795 C1038.65415,112.048355 1034.95669,115.769984 1031.09,118.96 C1030.60666,127.273375 1029.88167,133.363314 1028.915,137.23 C1027.75499,142.353359 1025.62835,146.364985 1022.535,149.265 C1020.40832,151.198343 1018.08835,152.309999 1015.575,152.6 C1012.77165,152.890001 1009.96835,152.02001 1007.165,149.99 C1002.62164,146.703317 1001.12333,141.870032 1002.67,135.49 C1003.92667,130.463308 1006.29498,126.500014 1009.775,123.6 C1011.41834,122.343327 1013.73832,120.869175 1016.735,119.1775 C1019.73168,117.485825 1021.76166,116.253337 1022.825,115.48 L1023.405,115.045 C1023.59833,111.178314 1023.74333,107.021689 1023.84,102.575 C1022.29333,105.185013 1020.55334,107.408324 1018.62,109.245 C1015.52665,112.338349 1012.28835,114.126664 1008.905,114.61 C1004.74831,115.093336 1000.83335,113.691683 997.16,110.405 C995.864045,109.224241 994.825485,107.859024 994.044319,106.309346 Z M685.027074,77.7439982 C685.13836,76.7141165 685.266002,75.6627838 685.41,74.59 C686.666673,64.3432821 688.938317,54.2900493 692.225,44.43 C694.158343,38.4366367 696.13999,33.4100203 698.17,29.35 C699.813342,25.9666497 701.456658,23.2600101 703.1,21.23 C705.613346,18.3299855 708.174987,16.6383357 710.785,16.155 C714.265017,15.6716642 717.068323,16.6383212 719.195,19.055 C720.645007,20.6983415 721.563331,22.9699855 721.95,25.87 C722.530003,29.6400188 722.240006,33.6516454 721.08,37.905 C716.34331,58.0117672 707.256734,75.6532574 693.82,90.83 C693.529999,91.2166686 693.143336,91.5066657 692.66,91.7 C693.046669,96.3400232 693.91666,99.9166541 695.27,102.43 C697.010009,105.233347 698.846657,106.924997 700.78,107.505 C703.48668,108.278337 705.903323,108.036673 708.03,106.78 C709.963343,105.523327 711.751658,103.300016 713.395,100.11 C716.10168,94.8899739 717.889996,88.075042 718.76,79.665 C718.856667,78.6016613 719.339996,77.73167 720.21,77.055 C721.080004,76.3783299 722.070828,76.0883328 723.1825,76.185 C724.294172,76.2816671 725.18833,76.7649956 725.865,77.635 C726.54167,78.5050043 726.831667,79.4716613 726.735,80.535 C725.768329,89.8150464 723.738349,97.4999695 720.645,103.59 C718.421656,108.036689 715.666683,111.27499 712.38,113.305 C708.223313,115.915013 703.583359,116.495007 698.46,115.045 C694.496647,113.884994 691.16168,110.93669 688.455,106.2 C687.384896,104.399094 686.529728,102.316318 685.889493,99.9516676 C685.681329,100.455382 685.473165,100.94316 685.265,101.415 C683.138323,106.15169 680.72168,109.679988 678.015,112 C674.244981,115.286683 670.088356,116.301673 665.545,115.045 C660.711642,113.69166 657.376676,110.453359 655.54,105.33 C655.249999,104.65333 655.008334,103.880004 654.815,103.01 C654.041663,104.36334 653.220004,105.571661 652.35,106.635 C649.353318,110.69502 646.211683,113.208328 642.925,114.175 C638.381644,115.52834 634.273352,114.030022 630.6,109.68 C629.506053,108.390705 628.656862,106.825087 628.052426,104.983136 C626.621095,106.799533 625.101954,108.413486 623.495,109.825 C620.981654,112.048344 618.009184,113.546663 614.5775,114.32 C611.145816,115.093337 607.786683,115.14167 604.5,114.465 C601.019983,113.594996 597.999179,112.000012 595.4375,109.68 C594.437872,108.774676 593.574407,107.75896 592.847103,106.632846 C588.6188,113.383971 583.319812,116.622992 576.95,116.35 C573.856651,116.156666 570.763349,115.093343 567.67,113.16 C563.029977,116.736685 557.568365,117.84834 551.285,116.495 C544.711634,115.238327 540.506676,111.323366 538.67,104.75 C537.31666,99.5299739 537.65499,93.4883677 539.685,86.625 C541.618343,80.2449681 544.566647,74.5900247 548.53,69.66 C552.976689,64.1499725 557.713308,60.9600044 562.74,60.09 C564.190007,59.8966657 565.398328,60.3799942 566.365,61.54 L567.815,62.12 C570.425013,63.0866715 572.599991,65.1166512 574.34,68.21 C577.336682,73.4300261 578.641669,80.0999594 578.255,88.22 C577.964999,95.7600377 576.225016,102.091641 573.035,107.215 C574.485007,107.988337 575.934993,108.423333 577.385,108.52 C580.865017,108.713334 583.95832,106.393358 586.665,101.56 C587.34167,100.399994 587.945831,99.2400058 588.4775,98.08 C589.009169,96.9199942 589.419999,95.9533372 589.71,95.18 C589.774934,95.0068422 589.842291,94.8179343 589.912072,94.6132758 C589.939578,90.7367134 590.669719,86.7448052 592.1025,82.6375 C594.277511,76.4024688 597.201648,71.2550203 600.875,67.195 C605.321689,62.4583096 609.623313,60.6216613 613.78,61.685 C618.420023,63.0383401 621.126663,67.8232922 621.9,76.04 C621.996667,77.1033386 621.70667,78.0458292 621.03,78.8675 C620.35333,79.6891708 619.459172,80.1483328 618.3475,80.245 C617.235828,80.3416671 616.269171,80.05167 615.4475,79.375 C614.625829,78.6983299 614.166667,77.7800058 614.07,76.62 C613.876666,74.686657 613.586669,73.0916729 613.2,71.835 C612.813331,70.578327 612.475001,69.8533343 612.185,69.66 L611.605,69.225 C610.541661,68.9349985 608.850012,70.0466541 606.53,72.56 C604.320385,74.9905763 602.447506,77.9823088 600.911331,81.5352526 C601.067463,82.1404603 601.055353,82.7737071 600.875,83.435 C600.778333,84.0150029 600.512502,85.2233242 600.0775,87.06 C599.642498,88.8966759 599.352501,90.15333 599.2075,90.83 C599.062499,91.5066701 598.772502,92.6183256 598.3375,94.165 C598.174231,94.7455133 598.014367,95.2851706 597.857907,95.7839741 C597.912759,96.9086067 598.048456,98.0122813 598.265,99.095 C599.038337,103.15502 601.696644,105.716661 606.24,106.78 C610.97669,107.843339 614.988317,106.925014 618.275,104.025 C621.761825,100.931849 624.790562,96.5790684 627.36124,90.9666048 C627.952579,86.6751087 629.128827,82.327932 630.89,77.925 C633.403346,71.6416352 636.544981,67.0016816 640.315,64.005 C645.438359,60.138314 650.754972,59.7033183 656.265,62.7 C659.358349,64.5366758 661.339996,66.421657 662.21,68.355 C662.500001,69.2250043 662.741666,70.288327 662.935,71.545 L662.935,71.98 C663.031667,71.98 663.128333,72.0283328 663.225,72.125 C663.998337,72.8983372 664.433333,73.8649942 664.53,75.025 C664.626667,75.8950043 664.481669,76.9099942 664.095,78.07 C664.095,78.2633343 663.853336,78.8433285 663.37,79.81 L663.225,80.535 C662.644997,83.6283488 662.355,85.2233328 662.355,85.32 C662.161666,86.9633415 662.016667,88.6066584 661.92,90.25 C661.726666,92.0866758 661.63,93.1499985 661.63,93.44 C661.63,97.306686 662.016663,100.399988 662.79,102.72 C663.853339,105.330013 665.448323,106.924997 667.575,107.505 C669.508343,107.988336 671.296658,107.505007 672.94,106.055 C674.680009,104.508326 676.419991,101.850019 678.16,98.08 C679.416673,95.2766526 680.72166,91.5550232 682.075,86.915 C683.710789,81.7493504 684.694806,78.6923719 685.027074,77.7439982 Z M515.76,41.385 C508.896632,40.8049971 501.550039,39.1616802 493.72,36.455 C492.753329,36.0683314 492.028336,35.3916715 491.545,34.425 C491.061664,33.4583285 490.989165,32.4675051 491.3275,31.4525 C491.665835,30.4374949 492.318329,29.6883357 493.285,29.205 C494.251671,28.7216642 495.266661,28.6249985 496.33,28.915 C503.966705,31.6216802 511.023301,33.2166642 517.5,33.7 C518.85334,28.3833067 520.496657,23.8883517 522.43,20.215 C526.876689,11.5149565 532.338301,7.9383256 538.815,9.485 C542.585019,10.3550043 545.194993,12.4816497 546.645,15.865 C547.708339,18.6683473 547.853337,21.8099826 547.08,25.29 C546.306663,28.4800159 544.808344,31.4524862 542.585,34.2075 C540.361656,36.9625138 537.655016,38.8233285 534.465,39.79 C531.178317,40.7566715 527.601686,41.3366657 523.735,41.53 C523.541666,42.5933386 523.058337,44.9133154 522.285,48.49 L520.545,56.755 C520.158331,58.7850101 519.602504,61.3466512 518.8775,64.44 C518.152496,67.5333488 517.403337,70.4333198 516.63,73.14 C515.856663,75.8466802 515.035004,78.5049869 514.165,81.115 C512.231657,86.6250275 510.25001,91.4583125 508.22,95.615 C510.153343,97.4516758 512.424987,99.964984 515.035,103.155 C520.738362,110.115035 523.976663,113.981663 524.75,114.755 C527.070012,117.268346 529.220823,119.153327 531.2025,120.41 C533.184177,121.666673 535.431654,122.536664 537.945,123.02 C540.458346,123.503336 543.019987,123.165006 545.63,122.005 C546.693339,121.618331 547.708328,121.642498 548.675,122.0775 C549.641672,122.512502 550.318331,123.237495 550.705,124.2525 C551.091669,125.267505 551.067502,126.258328 550.6325,127.225 C550.197498,128.191671 549.496672,128.868331 548.53,129.255 C546.016654,130.221671 543.551679,130.777499 541.135,130.9225 C538.718321,131.067501 536.543343,130.898336 534.61,130.415 C532.676657,129.931664 530.743343,129.134172 528.81,128.0225 C526.876657,126.910828 525.160841,125.726673 523.6625,124.47 C522.164159,123.213327 520.641674,121.763342 519.095,120.12 C518.128328,119.056661 514.793362,115.045035 509.09,108.085 L504.16,102.575 C499.616644,109.438368 494.251698,114.609983 488.065,118.09 C485.261653,119.636674 482.24085,120.506666 479.0025,120.7 C475.76415,120.893334 472.840013,120.265007 470.23,118.815 C467.329986,117.268326 465.324172,114.996682 464.2125,112 C463.100828,109.003318 463.124994,105.523353 464.285,101.56 C465.63834,97.4999797 467.958317,94.3100116 471.245,91.99 C474.531683,89.6699884 478.301645,88.2200029 482.555,87.64 C489.611702,86.6733285 496.039971,87.7366512 501.84,90.83 C503.580009,87.2533154 505.223326,83.193356 506.77,78.65 L508.945,71.4 C509.718337,68.9833212 510.491663,66.1800159 511.265,62.99 L512.715,56.175 L514.455,47.91 C515.325004,43.8499797 515.76,41.6750014 515.76,41.385 Z M525.62,33.555 C527.940012,33.3616657 530.11499,32.92667 532.145,32.25 C533.788342,31.7666642 535.28666,30.7033415 536.64,29.06 C537.99334,27.4166584 538.911664,25.5316773 539.395,23.405 C539.878336,21.5683241 539.878336,20.0700058 539.395,18.91 C539.008331,17.9433285 538.235006,17.3150014 537.075,17.025 C534.561654,16.4449971 532.000013,18.6683082 529.39,23.695 C528.03666,26.4016802 526.780006,29.688314 525.62,33.555 Z M498.07,97.645 C493.816645,95.4216556 489.031693,94.6966628 483.715,95.47 C477.238301,96.3400044 473.275007,99.1433097 471.825,103.88 C470.568327,107.843353 471.244987,110.549993 473.855,112 C476.948349,113.643342 480.428314,113.353344 484.295,111.13 C489.515026,108.229986 494.106647,103.73503 498.07,97.645 Z M561.58,107.795 L561,107.215 C557.906651,103.638315 555.417509,99.4091911 553.5325,94.5275 C551.647491,89.6458089 550.753333,84.8366903 550.85,80.1 C549.303326,83.0000145 548.095004,85.9483183 547.225,88.945 C545.581658,94.3583604 545.243328,98.9499811 546.21,102.72 C547.176671,106.10335 549.35165,108.181663 552.735,108.955 C556.11835,109.63167 559.066654,109.245007 561.58,107.795 Z M566.945,101.995 C569.071677,98.2249811 570.231666,93.4883618 570.425,87.785 C570.715001,81.1149666 569.748344,75.8950188 567.525,72.125 C566.751663,70.5783256 565.881672,69.6600014 564.915,69.37 C564.141663,68.9833314 563.175006,69.1283299 562.015,69.805 C561.918333,69.805 561.821667,69.9016657 561.725,70.095 C561.434999,70.6750029 561.096669,71.3999956 560.71,72.27 C558.583323,76.5233546 558.172493,81.4533053 559.4775,87.06 C560.782507,92.6666947 563.271648,97.6449782 566.945,101.995 Z M655.54,76.185 C655.443333,75.5083299 655.298334,74.3000087 655.105,72.56 C655.008333,71.8833299 654.911667,71.4483343 654.815,71.255 C654.911667,71.0616657 654.138342,70.5300043 652.495,69.66 C649.981654,68.2099927 647.516679,68.4033241 645.1,70.24 C642.39332,72.3666773 640.073343,75.8949753 638.14,80.825 C636.10999,85.6583575 634.998334,90.5399753 634.805,95.47 C634.611666,100.013356 635.239993,103.106658 636.69,104.75 C638.140007,106.393342 639.493327,107.021669 640.75,106.635 C642.296674,106.151664 644.08499,104.55668 646.115,101.85 C647.951676,99.4333212 649.643326,96.5333502 651.19,93.15 C652.736674,89.8633169 653.799997,87.2050101 654.38,85.175 C654.476667,84.7883314 654.573333,84.4500014 654.67,84.16 L654.67,83.145 C654.960001,80.6316541 655.249999,78.6016744 655.54,77.055 C655.54,76.7649985 655.588333,76.5233343 655.685,76.33 C655.685,76.2333328 655.636667,76.185 655.54,76.185 Z M753.125,49.795 C755.15501,43.2216338 757.958315,37.035029 761.535,31.235 C764.145013,26.9816454 766.851653,24.0333416 769.655,22.39 C774.101689,19.9733213 778.161648,20.6499812 781.835,24.42 C783.671676,26.4500102 785.508324,30.2199725 787.345,35.73 C788.601673,39.6933532 789.954993,45.0582995 791.405,51.825 C793.048342,59.558372 794.788324,68.9832778 796.625,80.1 C797.398337,85.3200261 797.978331,89.7666483 798.365,93.44 L800.395,87.93 C801.07167,85.996657 801.675831,84.3775065 802.2075,83.0725 C802.739169,81.7674935 803.053333,80.9216686 803.15,80.535 C808.56336,67.0982662 814.073305,55.2567179 819.68,45.01 C825.286695,34.7632821 832.198292,24.3717193 840.415,13.835 C841.09167,13.0616628 841.961661,12.6025007 843.025,12.4575 C844.088339,12.3124993 845.030829,12.57833 845.8525,13.255 C846.674171,13.9316701 847.157499,14.8016614 847.3025,15.865 C847.447501,16.9283387 847.18167,17.8949957 846.505,18.765 C838.481627,29.0117179 831.811693,39.0166179 826.495,48.78 C821.08164,58.7367165 815.716693,70.2882676 810.4,83.435 C810.303333,83.7250015 809.675006,85.5133169 808.515,88.8 L805.325,97.065 L801.845,105.62 C801.264997,106.876673 800.733336,107.891663 800.25,108.665 C799.959999,109.148336 799.718334,109.583331 799.525,109.97 C798.944997,110.64667 798.365003,111.178331 797.785,111.565 C796.238326,112.338337 794.78834,112.193339 793.435,111.13 C792.854997,110.743331 792.420001,110.260003 792.13,109.68 C791.936666,109.293331 791.791667,108.810003 791.695,108.23 C791.598333,107.55333 791.453334,106.683339 791.26,105.62 C791.066666,104.073326 790.921667,101.753349 790.825,98.66 C790.631666,94.2133111 789.955006,88.4133691 788.795,81.26 C786.76499,68.5966034 785.121673,59.3166962 783.865,53.42 C782.51166,47.2333024 781.15834,42.1583532 779.805,38.195 C778.45166,33.7483111 777.195006,30.9933387 776.035,29.93 C775.261663,28.9633285 774.391672,28.7216643 773.425,29.205 C771.878326,30.1716715 770.09001,32.2499841 768.06,35.44 C764.966651,40.563359 762.501676,46.1216367 760.665,52.115 C760.374999,53.1783387 759.746671,53.9516643 758.78,54.435 C757.813328,54.9183358 756.798339,55.0150015 755.735,54.725 C754.671661,54.4349986 753.898336,53.8066715 753.415,52.84 C752.931664,51.8733285 752.834999,50.8583387 753.125,49.795 Z M932.345,43.125 C933.118337,43.8983372 933.505,44.8166613 933.505,45.88 C933.505,46.9433386 933.118337,47.8616628 932.345,48.635 C931.571663,49.4083372 930.653339,49.795 929.59,49.795 C928.526661,49.795 927.608337,49.4083372 926.835,48.635 C926.061663,47.8616628 925.675,46.9433386 925.675,45.88 C925.675,44.8166613 926.061663,43.8983372 926.835,43.125 C927.608337,42.3516628 928.526661,41.965 929.59,41.965 C930.653339,41.965 931.571663,42.3516628 932.345,43.125 Z M1077.49,35.005 C1084.45003,28.6249681 1092.25579,23.7916831 1100.9075,20.505 C1109.55921,17.2183169 1118.13829,16.7833212 1126.645,19.2 C1134.2817,21.4233444 1139.83998,25.5799695 1143.32,31.67 C1146.99335,38.5333676 1146.89669,45.6866294 1143.03,53.13 C1139.83998,59.0266961 1133.12172,64.3916425 1122.875,69.225 C1118.04164,71.4483444 1112.6767,73.1399942 1106.78,74.3 C1107.26334,74.97667 1108.27833,76.5233212 1109.825,78.94 L1113.015,83.87 L1116.205,88.51 L1119.54,93.44 C1120.41,94.6000058 1121.52166,95.9533256 1122.875,97.5 L1126.5,101.995 C1135.87671,112.531719 1146.07494,118.331661 1157.095,119.395 C1158.15834,119.491667 1159.02833,119.950829 1159.705,120.7725 C1160.38167,121.594171 1160.67167,122.560828 1160.575,123.6725 C1160.47833,124.784172 1160.01917,125.67833 1159.1975,126.355 C1158.37583,127.03167 1157.38501,127.321667 1156.225,127.225 C1143.2716,125.968327 1131.43005,119.298394 1120.7,107.215 L1117.51,103.59 C1116.44666,102.333327 1115.33501,100.931674 1114.175,99.385 L1111.565,95.47 L1108.375,91.12 L1105.765,87.205 L1103.155,82.855 C1101.70499,80.6316555 1100.835,79.3266686 1100.545,78.94 L1099.385,94.02 C1098.805,100.496699 1098.41833,105.136653 1098.225,107.94 C1098.12833,109.003339 1097.66917,109.897496 1096.8475,110.6225 C1096.02583,111.347504 1095.08334,111.661667 1094.02,111.565 C1092.95666,111.468333 1092.0625,111.009171 1091.3375,110.1875 C1090.6125,109.365829 1090.29833,108.423339 1090.395,107.36 L1091.555,92.28 C1092.135,84.9332966 1092.59416,79.4233517 1092.9325,75.75 C1093.27084,72.0766483 1093.75416,67.2433633 1094.3825,61.25 C1095.01084,55.2566367 1095.73583,49.6983589 1096.5575,44.575 C1097.37917,39.451641 1098.27333,34.4250246 1099.24,29.495 C1093.53664,32.2016802 1088.02669,35.9716425 1082.71,40.805 C1081.93666,41.48167 1081.01834,41.82 1079.955,41.82 C1078.89166,41.82 1077.9975,41.4091708 1077.2725,40.5875 C1076.5475,39.7658292 1076.185,38.8233386 1076.185,37.76 C1076.185,36.6966613 1076.62,35.7783372 1077.49,35.005 Z M1445.21,89.235 C1447.53001,90.5883401 1449.89832,90.8783372 1452.315,90.105 C1455.31168,89.0416614 1457.92166,86.8183503 1460.145,83.435 C1462.27168,80.1483169 1463.23833,77.0550145 1463.045,74.155 C1462.94833,71.6416541 1461.78834,70.0466701 1459.565,69.37 C1456.95499,68.4033285 1454.24835,69.8049812 1451.445,73.575 C1448.25498,77.7316875 1446.17667,82.9516353 1445.21,89.235 Z M1278.46,101.995 C1280.58668,98.2249811 1281.74667,93.4883618 1281.94,87.785 C1282.23,81.1149666 1281.26334,75.8950188 1279.04,72.125 C1278.26666,70.5783256 1277.39667,69.6600014 1276.43,69.37 C1275.65666,68.9833314 1274.69001,69.1283299 1273.53,69.805 C1273.43333,69.805 1273.33667,69.9016657 1273.24,70.095 C1272.95,70.6750029 1272.61167,71.3999956 1272.225,72.27 C1270.09832,76.5233546 1269.68749,81.4533053 1270.9925,87.06 C1272.29751,92.6666947 1274.78665,97.6449782 1278.46,101.995 Z M1273.095,107.795 L1272.515,107.215 C1269.42165,103.638315 1266.93251,99.4091911 1265.0475,94.5275 C1263.16249,89.6458089 1262.26833,84.8366903 1262.365,80.1 C1260.81833,83.0000145 1259.61,85.9483183 1258.74,88.945 C1257.09666,94.3583604 1256.75833,98.9499811 1257.725,102.72 C1258.69167,106.10335 1260.86665,108.181663 1264.25,108.955 C1267.63335,109.63167 1270.58165,109.245007 1273.095,107.795 Z M1213.355,107.94 L1210.745,105.62 C1208.81166,103.686657 1207.12001,102.236671 1205.67,101.27 C1203.83332,99.8199927 1202.28667,98.9500014 1201.03,98.66 C1200.16,98.3699985 1199.48334,98.4183314 1199,98.805 C1198.32333,99.3850029 1198.275,100.206661 1198.855,101.27 C1200.11167,103.493344 1202.28665,105.28166 1205.38,106.635 C1208.18335,107.891673 1210.84165,108.326669 1213.355,107.94 Z M1166.085,89.235 C1168.40501,90.5883401 1170.77332,90.8783372 1173.19,90.105 C1176.18668,89.0416614 1178.79666,86.8183503 1181.02,83.435 C1183.14668,80.1483169 1184.11333,77.0550145 1183.92,74.155 C1183.82333,71.6416541 1182.66334,70.0466701 1180.44,69.37 C1177.82999,68.4033285 1175.12335,69.8049812 1172.32,73.575 C1169.12998,77.7316875 1167.05167,82.9516353 1166.085,89.235 Z M1107.795,26.595 C1107.795,26.8850014 1107.74667,27.2233314 1107.65,27.61 C1105.13665,38.9200565 1103.15501,52.1149246 1101.705,67.195 C1108.7617,66.1316613 1114.75498,64.4883444 1119.685,62.265 C1128.19171,58.2049797 1133.65332,53.903356 1136.07,49.36 C1138.68001,44.4299753 1138.77668,39.7900217 1136.36,35.44 C1134.03999,31.1866454 1130.12503,28.2866744 1124.615,26.74 C1119.20164,25.1933256 1113.59503,25.1449927 1107.795,26.595 Z M1022.825,74.445 C1021.85833,72.0283212 1020.79501,70.4333372 1019.635,69.66 C1018.95833,69.1766642 1018.13667,69.0316657 1017.17,69.225 C1014.17332,69.9983372 1010.93502,72.8499753 1007.455,77.78 C1003.87832,83.0000261 1001.55834,88.3166396 1000.495,93.73 C999.528328,98.9500261 1000.15666,102.57499 1002.38,104.605 C1004.21668,106.248342 1006.05332,106.973334 1007.89,106.78 C1009.53334,106.586666 1011.29749,105.571676 1013.1825,103.735 C1015.06751,101.898324 1016.73499,99.6025138 1018.185,96.8475 C1019.63501,94.0924862 1020.65,91.5550116 1021.23,89.235 C1021.90667,86.1416512 1022.535,81.9850261 1023.115,76.765 C1023.115,76.5716657 1023.16333,76.0883372 1023.26,75.315 C1023.06667,75.0249985 1022.92167,74.7350014 1022.825,74.445 Z M1022.825,124.76 L1020.505,125.92 C1017.89499,127.370007 1015.96167,128.626661 1014.705,129.69 C1012.57832,131.430009 1011.12834,133.943317 1010.355,137.23 C1009.58166,140.226682 1010.06499,142.353327 1011.805,143.61 C1012.96501,144.480004 1013.98,144.866667 1014.85,144.77 C1015.62334,144.673333 1016.39666,144.28667 1017.17,143.61 C1019.10334,141.773324 1020.505,139.066685 1021.375,135.49 C1021.955,132.976654 1022.43833,129.400023 1022.825,124.76 Z M864.485,101.995 C866.611677,98.2249811 867.771666,93.4883618 867.965,87.785 C868.255001,81.1149666 867.288344,75.8950188 865.065,72.125 C864.291663,70.5783256 863.421672,69.6600014 862.455,69.37 C861.681663,68.9833314 860.715006,69.1283299 859.555,69.805 C859.458333,69.805 859.361667,69.9016657 859.265,70.095 C858.974999,70.6750029 858.636669,71.3999956 858.25,72.27 C856.123323,76.5233546 855.712493,81.4533053 857.0175,87.06 C858.322507,92.6666947 860.811648,97.6449782 864.485,101.995 Z M859.12,107.795 L858.54,107.215 C855.446651,103.638315 852.957509,99.4091911 851.0725,94.5275 C849.187491,89.6458089 848.293333,84.8366903 848.39,80.1 C846.843326,83.0000145 845.635004,85.9483183 844.765,88.945 C843.121658,94.3583604 842.783328,98.9499811 843.75,102.72 C844.716671,106.10335 846.89165,108.181663 850.275,108.955 C853.65835,109.63167 856.606654,109.245007 859.12,107.795 Z M690.92,79.52 C699.233375,67.8232748 705.129983,54.3384097 708.61,39.065 C709.28667,35.9716512 709.431669,33.120013 709.045,30.51 C708.948333,29.253327 708.706669,28.3833357 708.32,27.9 C708.126666,27.7066657 707.836669,27.6583328 707.45,27.755 C706.966664,27.8516671 706.241672,28.528327 705.275,29.785 C704.114994,31.2350072 702.955006,33.2649869 701.795,35.875 C700.151658,39.3550174 698.556674,43.7049739 697.01,48.925 C694.30332,57.9150449 692.418339,66.8566222 691.355,75.75 C691.161666,77.0066729 691.016667,78.263327 690.92,79.52 Z" id="Local-Voting-Resourc" fill="#4A4A4A"></path>
                    <g id="sa2020_typography" transform="translate(1598.000000, 3.000000)">
                        <g id="Group-3" transform="translate(506.834024, 5.057889)" fill="#6C6B67">
                            <path d="M70.8444749,57.010503 L70.8481315,56.7009602 C70.9029807,39.5450049 62.7085186,27.0030584 50.762375,26.9702833 C38.8162314,26.9302248 30.8667621,38.9623361 30.8155696,56.2748836 L30.8082564,56.5844264 C30.7607204,73.8896906 38.7942917,86.2786865 50.8976695,86.3114616 C63.0010473,86.3478784 70.8005956,74.1628166 70.8444749,57.010503 Z M0.549811883,56.7992855 L0.560781712,56.4897427 C0.644883733,25.892346 20.2772207,0.294976093 51.1536322,0.389659778 C82.0373569,0.480701782 101.197991,25.8814209 101.106576,56.4824594 L101.106576,56.7920022 C101.011504,87.3857572 81.5437146,112.983127 50.5100689,112.892085 C19.4727666,112.801043 0.462053253,87.3966823 0.549811883,56.7992855 L0.549811883,56.7992855 Z" id="Fill-1"></path>
                        </g>
                        <path d="M415.43473,92.8041727 L456.187644,62.0137669 C466.290857,54.1623045 470.192459,49.0712356 470.203429,42.5817615 C470.229025,35.7827447 465.431554,31.5984542 458.132961,31.5766041 C450.841681,31.554754 445.086178,35.7099111 436.526055,45.4186304 L416.250154,28.5175927 C427.933022,13.5612123 439.440372,5.40384873 460.53901,5.4657573 C484.285033,5.5385909 500.535006,19.6501015 500.469187,40.0471521 L500.469187,40.356695 C500.421651,57.6619591 491.397138,66.5986422 475.216641,78.1427684 L456.564275,91.0707329 L501.408935,91.2018334 L501.335803,115.615657 L415.368911,115.368023 L415.43473,92.8041727" id="Fill-4" fill="#6C6B67"></path>
                        <path d="M381.556242,61.4820816 L381.556242,61.1761805 C381.603778,44.0202252 373.416629,31.474637 361.470486,31.4455036 C349.524342,31.4090868 341.571216,43.4375564 341.520024,60.7464622 L341.520024,61.0596467 C341.468831,78.3685525 349.502403,90.7539068 361.598467,90.7903236 C373.705502,90.819457 381.497737,78.6380369 381.556242,61.4820816 Z M311.257923,61.2781475 L311.257923,60.964963 C311.349338,30.3675663 330.981675,4.77383807 361.861743,4.86488007 C392.738155,4.95592207 411.902446,30.3602829 411.81103,60.9576797 L411.81103,61.2635808 C411.719615,91.8646192 392.248169,117.458347 361.20721,117.367305 C330.177221,117.272622 311.170164,91.8791859 311.257923,61.2781475 L311.257923,61.2781475 Z" id="Fill-5" fill="#6C6B67"></path>
                        <path d="M219.312474,92.2215039 L260.054418,61.4310981 C270.168601,53.5832773 274.055577,48.4922085 274.081173,42.0063761 C274.099456,35.2037175 269.298328,31.0157853 262.007048,30.9975769 C254.715768,30.9720852 248.960265,35.1272422 240.400142,44.8396032 L220.120585,27.9312822 C231.807109,12.9785435 243.310803,4.82482159 264.416754,4.88308847 C288.155463,4.95592207 304.409093,19.0674327 304.343274,39.4644833 L304.343274,39.7740261 C304.292081,57.082932 295.263912,66.0159734 279.090728,77.5600995 L260.431049,90.4880641 L305.279366,90.6228063 L305.202577,115.03663 L219.242999,114.781713 L219.312474,92.2215039" id="Fill-6" fill="#6C6B67"></path>
                        <path d="M168.010242,71.9774038 L155.998279,41.186998 L143.649908,71.9045702 L168.010242,71.9774038 Z M141.828917,5.60414114 L170.847771,5.68789979 L216.756504,114.778071 L184.486924,114.683387 L176.62887,95.3387821 L134.738751,95.214965 L126.917263,114.512228 L95.26565,114.413903 L141.828917,5.60414114 L141.828917,5.60414114 Z" id="Fill-7" fill="#6C6B67"></path>
                        <path d="M166.862066,70.1856972 L154.85376,39.3989331 L142.501733,70.1092219 L166.862066,70.1856972 Z M140.684398,3.8124345 L169.699595,3.89619315 L215.615642,112.986364 L183.338749,112.888039 L175.484352,93.5434338 L133.590575,93.4232583 L125.772744,112.71688 L94.113818,112.622196 L140.684398,3.8124345 L140.684398,3.8124345 Z" id="Fill-8" fill="#FFFFFF"></path>
                        <path d="M218.164299,90.4297972 L258.9099,59.6430331 C269.016769,51.7915707 272.914714,46.7005018 272.932997,40.2110278 C272.951281,33.4156526 268.153809,29.2240787 260.862529,29.2022286 C253.57125,29.1803785 247.81209,33.3391773 239.251966,43.0478966 L218.97241,26.1432173 C230.655277,11.1904785 242.166284,3.02947327 263.264922,3.09138183 C287.007288,3.16421543 303.260918,17.2720844 303.198755,37.6727767 L303.198755,37.9859612 C303.140249,55.2912253 294.119394,64.2279084 277.949866,75.7683929 L259.28653,88.6963575 L304.131191,88.827458 L304.058058,113.248565 L218.094823,112.993648 L218.164299,90.4297972" id="Fill-9" fill="#FFFFFF"></path>
                        <path d="M380.408067,59.690375 L380.408067,59.3844738 C380.455603,42.2321602 372.275767,29.6865721 360.32231,29.6501553 C348.368854,29.6173802 340.430354,41.6458497 340.371848,58.9547556 L340.371848,59.2642984 C340.316999,76.5732042 348.354227,88.9585584 360.453948,88.9986169 C372.560983,89.0350337 380.353218,76.8463302 380.408067,59.690375 Z M310.117061,59.4864409 L310.117061,59.1732564 C310.204819,28.5722179 329.829843,2.98213142 360.713568,3.07681511 C391.589979,3.16421543 410.757927,28.5649346 410.666511,59.1623313 L410.666511,59.4755158 C410.575096,90.0729126 391.096337,115.666641 360.066348,115.575599 C329.032702,115.480915 310.018332,90.0874793 310.117061,59.4864409 L310.117061,59.4864409 Z" id="Fill-10" fill="#FFFFFF"></path>
                        <path d="M414.286555,91.0088244 L455.035812,60.2220603 C465.146338,52.3705978 469.040627,47.2831706 469.05891,40.7936966 C469.08085,33.9946797 464.276065,29.8103892 456.988442,29.7848974 C449.697162,29.7630474 443.941659,33.9182044 435.374223,43.6305654 L415.105636,26.7258861 C426.784847,11.7695057 438.28854,3.61214209 459.390834,3.67405066 C483.136857,3.74324258 499.383174,17.8583949 499.328325,38.2518038 L499.328325,38.56863 C499.269819,55.8738941 490.245306,64.8069356 474.072122,76.3547034 L455.4161,89.2790263 L500.257103,89.4137685 L500.183971,113.831234 L414.224393,113.576316 L414.286555,91.0088244" id="Fill-11" fill="#FFFFFF"></path>
                        <path d="M576.53398,60.2766855 L576.53398,59.963501 C576.592486,42.8148291 568.398023,30.2692409 556.45188,30.2328241 C544.505736,30.200049 536.548954,42.2321602 536.508731,59.5374244 L536.501418,59.8469672 C536.450225,77.1522314 544.48014,89.544869 556.590831,89.5812858 C568.683239,89.6140609 576.482787,77.4253574 576.53398,60.2766855 Z M506.239317,60.065468 L506.242973,59.7559252 C506.330732,29.1621701 525.963069,3.56480025 556.83948,3.65948394 C587.723205,3.74688426 606.883839,29.1476034 606.796081,59.7486418 L606.796081,60.054543 C606.697352,90.6519397 587.229563,116.24931 556.192261,116.161909 C525.158615,116.063584 506.147901,90.6665064 506.239317,60.065468 L506.239317,60.065468 Z" id="Fill-12" fill="#FFFFFF"></path>
                        <path d="M3.12640121,98.0664005 L19.9468054,78.1828268 C30.627762,86.7152835 42.5629358,91.2309669 55.130703,91.2673837 C63.1971838,91.2892338 67.5522058,88.5251985 67.5668323,83.8893397 L67.5668323,83.5761552 C67.5814587,79.0968886 64.019921,76.6169044 49.2874409,73.1718749 C26.1813248,67.8477385 8.35535295,61.307281 8.42482853,39.0493318 L8.42482853,38.7434306 C8.48333428,18.6522812 24.5102542,4.17296084 50.5782241,4.24943612 C69.0441026,4.30406132 83.4621142,9.29316315 95.2254273,18.7542482 L80.1090032,39.8832765 C70.1995912,32.898534 59.3504305,29.1585285 49.7298906,29.1257533 C42.4349545,29.1039033 38.8587903,32.1884064 38.8478204,36.0485873 L38.8441638,36.3581301 C38.833194,41.3035318 42.5483094,43.4812565 57.5916013,46.926286 C82.555275,52.4070146 98.0483299,60.4879029 97.9898242,80.7356446 L97.9861676,81.0415458 C97.9203486,103.139261 80.3466828,116.22746 53.9679012,116.147343 C34.7268214,116.089076 16.4364602,110.00747 3.12640121,98.0664005" id="Fill-13" fill="#6C6B67"></path>
                        <path d="M1.98188241,96.2746939 L18.7949734,76.3911202 C29.4795866,84.9235768 41.4147604,89.4429019 53.978871,89.475677 C62.052665,89.5011688 66.4040304,86.7334919 66.4186569,82.097633 L66.4186569,81.7844485 C66.4332833,77.3051819 62.8717455,74.821556 48.1429221,71.3765266 C25.036806,66.0560319 7.21083414,59.5119326 7.27665311,37.2612668 L7.27665311,36.9480823 C7.33881548,16.8605745 23.3620788,2.3812542 49.4337052,2.45772948 C67.8959271,2.51599636 82.3175954,7.50145651 94.0809085,16.9625416 L78.9644844,38.0879282 C69.0550724,31.110469 58.2022551,27.3631801 48.5817152,27.3376884 C41.2904357,27.3158383 37.7106149,30.3966997 37.7033016,34.2605224 L37.6959884,34.5664235 C37.6850186,39.5118252 41.4001339,41.6895499 56.4397692,45.1309377 C81.4107562,50.615308 96.9038111,58.699838 96.8416488,78.9402963 L96.8416488,79.2498391 C96.7758298,101.351196 79.202164,114.435753 52.8197257,114.355636 C33.578646,114.297369 15.2882848,108.219405 1.98188241,96.2746939" id="Fill-14" fill="#FFFFFF"></path>
                        <path d="M412.315642,89.8908286 L453.050273,59.1077061 C463.168112,51.2562437 467.055088,46.1651748 467.080684,39.6720591 C467.102624,32.8766839 462.305152,28.6887517 455.010216,28.6669016 C447.71528,28.6486932 441.963433,32.8002086 433.395997,42.5089279 L413.123753,25.6078903 C424.802964,10.6515099 436.310315,2.49414628 457.412609,2.55605484 C481.154975,2.62888845 497.404948,16.7403991 497.350099,37.1410914 L497.350099,37.4469925 C497.291593,54.7558983 488.259767,63.6925815 472.09024,75.2330659 L453.434217,88.1610305 L498.282534,88.292131 L498.205745,112.709596 L412.238854,112.451037 L412.315642,89.8908286" id="Fill-15" fill="#CC272A"></path>
                        <path d="M574.555754,59.155048 L574.555754,58.8455052 C574.606946,41.6931916 566.416141,29.1512451 554.473654,29.11847 C542.523854,29.0820532 534.570728,41.1105228 534.526849,58.4194286 L534.523192,58.7289714 C534.468343,76.0378772 542.501914,88.4232315 554.608949,88.4596483 C566.701357,88.4997067 574.500905,76.3110032 574.555754,59.155048 Z M504.257434,58.9474722 L504.257434,58.6379294 C504.352506,28.0405326 523.981187,2.44680444 554.861255,2.53784644 C585.741323,2.62888845 604.90927,28.0296076 604.810542,58.6270044 L604.810542,58.9401888 C604.719127,89.5339439 585.244024,115.131314 554.214035,115.03663 C523.173076,114.94923 504.169676,89.5485106 504.257434,58.9474722 L504.257434,58.9474722 Z" id="Fill-16" fill="#CC272A"></path>
                        <path d="M378.429841,58.5760208 L378.429841,58.2701197 C378.477377,41.1105228 370.297541,28.5722179 358.340428,28.5321595 C346.386971,28.4957427 338.448472,40.5314956 338.389966,57.8404014 L338.389966,58.1463026 C338.338773,75.4515667 346.368688,87.8442043 358.472066,87.8769794 C370.582757,87.9097546 378.374992,75.7319761 378.429841,58.5760208 Z M308.135178,58.3684451 L308.135178,58.0552606 C308.222937,27.4578638 327.855274,1.86049393 358.728029,1.95517762 C389.611753,2.04621962 408.776044,27.4469388 408.688286,58.0479772 L408.688286,58.3538783 C408.593214,88.9549168 389.118111,114.548645 358.084465,114.457603 C327.05082,114.366561 308.040106,88.9658418 308.135178,58.3684451 L308.135178,58.3684451 Z" id="Fill-17" fill="#CC272A"></path>
                        <path d="M216.17876,89.3081597 L256.928017,58.5250373 C267.034886,50.6699332 270.932832,45.582506 270.954772,39.0930319 C270.973055,32.2940151 266.175583,28.1060829 258.880647,28.0878745 C251.589367,28.0660244 245.833864,32.2175398 237.270084,41.9299008 L216.990527,25.0252215 C228.677051,10.068841 240.188058,1.91147746 261.286696,1.97338602 C285.029062,2.04621962 301.279035,16.1613719 301.216873,36.5547809 L301.216873,36.8643237 C301.16568,54.1695878 292.137511,63.1099126 275.967983,74.6503971 L257.304648,87.5783617 L302.149308,87.7131038 L302.076176,112.123286 L216.112941,111.875652 L216.17876,89.3081597" id="Fill-18" fill="#CC272A"></path>
                        <path d="M164.88384,69.0677014 L152.871878,38.2809373 L140.523507,68.9985095 L164.88384,69.0677014 Z M138.702516,2.69443869 L167.721369,2.77819734 L213.63376,111.868368 L181.360523,111.770043 L173.502469,92.4290796 L131.612349,92.3052625 L123.790862,111.598884 L92.1355922,111.5042 L138.702516,2.69443869 L138.702516,2.69443869 Z" id="Fill-19" fill="#DD702B"></path>
                        <path d="M0,95.1603398 L16.8204042,75.2767661 C27.5013608,83.805581 39.4365346,88.3176227 52.0006452,88.3576812 C60.0707826,88.383173 64.4258046,85.6154961 64.4367745,80.9759955 L64.4367745,80.6700944 C64.4514009,76.1871861 60.8898631,73.7035602 46.1610396,70.2621725 C23.0549236,64.9380361 5.22895173,58.3939368 5.29477071,36.143271 L5.29842732,35.8337282 C5.35693307,15.7462204 21.383853,1.26325839 47.4518228,1.33973367 C65.9177013,1.39435887 80.3320564,6.37981902 92.0990261,15.8445458 L76.982602,36.9735741 C67.07319,29.9888315 56.2203727,26.2451843 46.6034894,26.2196926 C39.3122099,26.1978425 35.7287324,29.2750622 35.7214192,33.1388849 L35.7177626,33.4520694 C35.7067928,38.397471 39.4219081,40.5715541 54.4615435,44.0129418 C79.4288738,49.4973122 94.9219287,57.5782005 94.8597664,77.8223005 L94.8597664,78.1318433 C94.7939474,100.229559 77.2202816,113.314115 50.8414999,113.233998 C31.6004202,113.183015 13.310059,107.097767 0,95.1603398" id="Fill-20" fill="#DD702B"></path>
                        <path d="M624.029682,11.2924456 L622.128245,11.2924456 L622.128245,8.0732003 L624.13938,8.0732003 C625.177857,8.0732003 625.810451,8.08412534 626.018878,8.11325878 C626.432074,8.1824507 626.750199,8.34632631 626.987879,8.61216896 C627.214589,8.87436993 627.327944,9.21668787 627.327944,9.64640613 C627.327944,10.0287825 627.240185,10.3456087 627.068324,10.5968847 C626.896464,10.8518023 626.655128,11.0302446 626.347972,11.1358533 C626.040817,11.2378204 625.269273,11.2924456 624.029682,11.2924456 Z M627.993447,14.0819726 C627.631442,13.6923128 627.174366,13.3354281 626.614905,13.0149603 C627.737484,12.8547264 628.574848,12.4650666 629.141622,11.8386976 C629.70474,11.219612 629.986299,10.433009 629.986299,9.47888884 C629.986299,8.73234441 629.799812,8.06227526 629.426838,7.47960643 C629.05752,6.8969376 628.563878,6.48906942 627.945911,6.26328525 C627.327944,6.0338594 626.337003,5.92096732 624.973087,5.92096732 L619.553992,5.92096732 L619.553992,18.6231477 L622.128245,18.6231477 L622.128245,13.3172197 L622.65114,13.3172197 C623.239854,13.3172197 623.674991,13.3645616 623.94558,13.4592453 C624.223482,13.5575706 624.479445,13.7323713 624.720781,13.9909306 C624.965774,14.2458482 625.419194,14.8722172 626.08104,15.8554708 L627.938598,18.6231477 L631.017463,18.6231477 L629.463404,16.1431635 C628.849093,15.1562682 628.359108,14.4679907 627.993447,14.0819726 Z M624.622053,22.7892298 C618.976247,22.7746631 614.405485,18.2262046 614.390859,12.5998087 C614.405485,6.97341289 618.976247,2.42131268 624.622053,2.41038764 C630.275171,2.42131268 634.842277,6.97341289 634.853246,12.5998087 C634.842277,18.2262046 630.275171,22.7746631 624.622053,22.7892298 Z M624.622053,0.440238669 C617.882921,0.440238669 612.412633,5.88090884 612.412633,12.5998087 C612.412633,19.315067 617.882921,24.7593788 624.622053,24.7593788 C631.368497,24.7593788 636.835129,19.315067 636.835129,12.5998087 C636.835129,5.88090884 631.368497,0.440238669 624.622053,0.440238669 L624.622053,0.440238669 Z" id="Fill-21" fill="#4D4D4C"></path>
                    </g>
                    <text id="by" font-family="Montserrat-Regular, Montserrat" font-size="52" font-weight="normal" fill="#4A4A4A">
                        <tspan x="1513" y="116">by</tspan>
                    </text>
                </g>
            </g>
        </g>
    </g>
</svg>