<?xml version="1.0" encoding="UTF-8"?>
<svg width="734px" height="814px" viewBox="0 0 734 814" version="1.1" xmlns="http://www.w3.org/2000/svg" xmlns:xlink="http://www.w3.org/1999/xlink">
    <!-- Generator: Sketch 42 (36781) - http://www.bohemiancoding.com/sketch -->
    <title>Group 9</title>
    <desc>Created with Sketch.</desc>
    <defs></defs>
    <g id="Page-1" stroke="none" stroke-width="1" fill="none" fill-rule="evenodd">
        <g id="Group-9" fill="#1B9896">
            <path d="M73.321875,742.940393 L73.321875,466.828542 L347.179078,631.66248 C353.11815,635.228175 359.863762,637.028674 366.609375,637.028674 C373.354988,637.028674 380.1006,635.228175 386.039672,631.66248 L659.896875,466.828542 L659.933536,742.940393 L73.321875,742.940393 Z M590.717686,425.205237 L366.609375,560.101463 L142.501064,425.205237 L590.717686,425.205237 Z M659.896875,354.597424 L73.321875,354.597424 C32.8848609,354.597424 0,386.300332 0,425.205237 L0,742.940393 C0,781.880602 32.8848609,813.548205 73.321875,813.548205 L659.896875,813.548205 C700.333889,813.548205 733.21875,781.880602 733.21875,742.940393 L733.21875,425.205237 C733.21875,386.300332 700.333889,354.597424 659.896875,354.597424 L659.896875,354.597424 Z" id="Fill-247"></path>
            <polygon id="Fill-248" points="539.248631 131.865324 487.410065 81.9456011 403.346536 162.897458 403.346536 0.993744029 330.024661 0.993744029 330.024661 162.897458 245.961131 81.9456011 194.122565 131.865324 366.685598 298.076115"></polygon>
        </g>
    </g>
</svg>