<?xml version="1.0" encoding="UTF-8"?>
<svg width="2235px" height="153px" viewBox="0 0 2235 153" version="1.1" xmlns="http://www.w3.org/2000/svg" xmlns:xlink="http://www.w3.org/1999/xlink">
    <!-- Generator: Sketch 42 (36781) - http://www.bohemiancoding.com/sketch -->
    <title>Group 5</title>
    <desc>Created with Sketch.</desc>
    <defs></defs>
    <g id="Page-1" stroke="none" stroke-width="1" fill="none" fill-rule="evenodd">
        <g id="Group-5" transform="translate(0.000000, -7.000000)">
            <g id="Group" transform="translate(0.000000, 7.000000)">
                <path d="M244.556739,21.3633333 C240.947403,23.6640115 239.142762,27.1423656 239.142762,31.7985 C239.142762,36.4546344 240.947403,40.0151543 244.556739,42.4801667 C248.166075,44.945179 255.84947,47.6018746 267.607155,50.4503333 C279.36484,53.298792 288.223986,57.2975298 294.184859,62.4466667 C300.145731,67.5958035 303.126123,75.1824499 303.126123,85.2068333 C303.126123,95.2312168 299.352783,103.365635 291.80599,109.610333 C284.259197,115.855031 274.361015,118.977333 262.111148,118.977333 C244.173843,118.977333 228.260191,112.787506 214.369717,100.407667 L226.51015,85.782 C238.103774,95.8611615 250.134713,100.900667 262.603328,100.900667 C268.837635,100.900667 273.786726,99.5586245 277.450749,96.8745 C281.114772,94.1903755 282.946755,90.6298555 282.946755,86.1928333 C282.946755,81.7558111 281.224144,78.3048457 277.778869,75.8398333 C274.333593,73.374821 268.400153,71.1289546 259.978369,69.1021667 C251.556586,67.0753788 245.158314,65.2129529 240.783361,63.5148333 C236.408409,61.8167137 232.525696,59.5982359 229.135108,56.8593333 C222.353932,51.7101965 218.963394,43.8222754 218.963394,33.1953333 C218.963394,22.5683913 222.818763,14.3791954 230.529617,8.6275 C238.240471,2.87580457 247.783193,0 259.15807,0 C266.486115,0 273.759365,1.20509906 280.978037,3.61533333 C288.196708,6.02556761 294.430922,9.42175587 299.680865,13.804 L289.345092,28.4296667 C285.954503,25.3620958 281.360872,22.8423432 275.56406,20.8703333 C269.767248,18.8983235 264.052552,17.9123333 258.4198,17.9123333 C252.787049,17.9123333 248.166075,19.0626552 244.556739,21.3633333 Z" id="S" fill="#1B9896"></path>
                <path d="M335.281864,90.865 L323.797671,116.994 L303.126123,116.994 L353.656572,2.125 L374.32812,2.125 L424.858569,116.994 L404.187022,116.994 L392.702829,90.865 L335.281864,90.865 Z M384.827953,72.9526667 L363.992346,25.6246667 L343.156739,72.9526667 L384.827953,72.9526667 Z" id="A" fill="#1B9896"></path>
                <g id="Group-2" fill="#1B9896">
                    <polygon id="I" points="34.6505824 1.41666667 54.0096506 1.41666667 54.0096506 116.285667 34.6505824 116.285667"></polygon>
                    <polyline id="I" points="88.756406 97.0416667 88.756406 116.433 0.818429891 116.433 0.818429891 97.0416667"></polyline>
                    <polyline id="I" points="87.9379761 0.559959635 87.9379761 19.951293 0 19.951293 0 0.559959635"></polyline>
                </g>
                <path d="M147.423509,100.496888 C142.760282,97.6909586 101.830283,72.2544135 101.830283,43.3957996 C101.830283,23.4878521 110.023299,10.625 129.914746,10.625 C136.024322,10.625 147.149201,18.04548 151.704368,22.3168213 C156.259534,18.04548 167.384413,10.625 173.493989,10.625 C193.385436,10.625 201.578452,23.4878521 201.578452,43.3957996 C201.578452,72.2544135 160.648453,97.6909586 155.985226,100.496888 C154.663563,101.287878 153.183965,101.679209 151.704368,101.679209 C150.22477,101.679209 148.745172,101.287878 147.423509,100.496888 Z" id="Fill-180" stroke="#CB272B" stroke-width="19"></path>
            </g>
            <text id="Local-Voting-Resourc" font-family="AlwaysInMyHeart, Always In My Heart" font-size="145" font-weight="normal" fill="#4A4A4A">
                <tspan x="445" y="119">Local Voting Resource</tspan>
            </text>
            <g id="sa2020_typography" transform="translate(1598.000000, 10.000000)">
                <g id="Group-3" transform="translate(506.834024, 5.057889)" fill="#6C6B67">
                    <path d="M70.8444749,57.010503 L70.8481315,56.7009602 C70.9029807,39.5450049 62.7085186,27.0030584 50.762375,26.9702833 C38.8162314,26.9302248 30.8667621,38.9623361 30.8155696,56.2748836 L30.8082564,56.5844264 C30.7607204,73.8896906 38.7942917,86.2786865 50.8976695,86.3114616 C63.0010473,86.3478784 70.8005956,74.1628166 70.8444749,57.010503 Z M0.549811883,56.7992855 L0.560781712,56.4897427 C0.644883733,25.892346 20.2772207,0.294976093 51.1536322,0.389659778 C82.0373569,0.480701782 101.197991,25.8814209 101.106576,56.4824594 L101.106576,56.7920022 C101.011504,87.3857572 81.5437146,112.983127 50.5100689,112.892085 C19.4727666,112.801043 0.462053253,87.3966823 0.549811883,56.7992855 L0.549811883,56.7992855 Z" id="Fill-1"></path>
                </g>
                <path d="M415.43473,92.8041727 L456.187644,62.0137669 C466.290857,54.1623045 470.192459,49.0712356 470.203429,42.5817615 C470.229025,35.7827447 465.431554,31.5984542 458.132961,31.5766041 C450.841681,31.554754 445.086178,35.7099111 436.526055,45.4186304 L416.250154,28.5175927 C427.933022,13.5612123 439.440372,5.40384873 460.53901,5.4657573 C484.285033,5.5385909 500.535006,19.6501015 500.469187,40.0471521 L500.469187,40.356695 C500.421651,57.6619591 491.397138,66.5986422 475.216641,78.1427684 L456.564275,91.0707329 L501.408935,91.2018334 L501.335803,115.615657 L415.368911,115.368023 L415.43473,92.8041727" id="Fill-4" fill="#6C6B67"></path>
                <path d="M381.556242,61.4820816 L381.556242,61.1761805 C381.603778,44.0202252 373.416629,31.474637 361.470486,31.4455036 C349.524342,31.4090868 341.571216,43.4375564 341.520024,60.7464622 L341.520024,61.0596467 C341.468831,78.3685525 349.502403,90.7539068 361.598467,90.7903236 C373.705502,90.819457 381.497737,78.6380369 381.556242,61.4820816 Z M311.257923,61.2781475 L311.257923,60.964963 C311.349338,30.3675663 330.981675,4.77383807 361.861743,4.86488007 C392.738155,4.95592207 411.902446,30.3602829 411.81103,60.9576797 L411.81103,61.2635808 C411.719615,91.8646192 392.248169,117.458347 361.20721,117.367305 C330.177221,117.272622 311.170164,91.8791859 311.257923,61.2781475 L311.257923,61.2781475 Z" id="Fill-5" fill="#6C6B67"></path>
                <path d="M219.312474,92.2215039 L260.054418,61.4310981 C270.168601,53.5832773 274.055577,48.4922085 274.081173,42.0063761 C274.099456,35.2037175 269.298328,31.0157853 262.007048,30.9975769 C254.715768,30.9720852 248.960265,35.1272422 240.400142,44.8396032 L220.120585,27.9312822 C231.807109,12.9785435 243.310803,4.82482159 264.416754,4.88308847 C288.155463,4.95592207 304.409093,19.0674327 304.343274,39.4644833 L304.343274,39.7740261 C304.292081,57.082932 295.263912,66.0159734 279.090728,77.5600995 L260.431049,90.4880641 L305.279366,90.6228063 L305.202577,115.03663 L219.242999,114.781713 L219.312474,92.2215039" id="Fill-6" fill="#6C6B67"></path>
                <path d="M168.010242,71.9774038 L155.998279,41.186998 L143.649908,71.9045702 L168.010242,71.9774038 Z M141.828917,5.60414114 L170.847771,5.68789979 L216.756504,114.778071 L184.486924,114.683387 L176.62887,95.3387821 L134.738751,95.214965 L126.917263,114.512228 L95.26565,114.413903 L141.828917,5.60414114 L141.828917,5.60414114 Z" id="Fill-7" fill="#6C6B67"></path>
                <path d="M166.862066,70.1856972 L154.85376,39.3989331 L142.501733,70.1092219 L166.862066,70.1856972 Z M140.684398,3.8124345 L169.699595,3.89619315 L215.615642,112.986364 L183.338749,112.888039 L175.484352,93.5434338 L133.590575,93.4232583 L125.772744,112.71688 L94.113818,112.622196 L140.684398,3.8124345 L140.684398,3.8124345 Z" id="Fill-8" fill="#FFFFFF"></path>
                <path d="M218.164299,90.4297972 L258.9099,59.6430331 C269.016769,51.7915707 272.914714,46.7005018 272.932997,40.2110278 C272.951281,33.4156526 268.153809,29.2240787 260.862529,29.2022286 C253.57125,29.1803785 247.81209,33.3391773 239.251966,43.0478966 L218.97241,26.1432173 C230.655277,11.1904785 242.166284,3.02947327 263.264922,3.09138183 C287.007288,3.16421543 303.260918,17.2720844 303.198755,37.6727767 L303.198755,37.9859612 C303.140249,55.2912253 294.119394,64.2279084 277.949866,75.7683929 L259.28653,88.6963575 L304.131191,88.827458 L304.058058,113.248565 L218.094823,112.993648 L218.164299,90.4297972" id="Fill-9" fill="#FFFFFF"></path>
                <path d="M380.408067,59.690375 L380.408067,59.3844738 C380.455603,42.2321602 372.275767,29.6865721 360.32231,29.6501553 C348.368854,29.6173802 340.430354,41.6458497 340.371848,58.9547556 L340.371848,59.2642984 C340.316999,76.5732042 348.354227,88.9585584 360.453948,88.9986169 C372.560983,89.0350337 380.353218,76.8463302 380.408067,59.690375 Z M310.117061,59.4864409 L310.117061,59.1732564 C310.204819,28.5722179 329.829843,2.98213142 360.713568,3.07681511 C391.589979,3.16421543 410.757927,28.5649346 410.666511,59.1623313 L410.666511,59.4755158 C410.575096,90.0729126 391.096337,115.666641 360.066348,115.575599 C329.032702,115.480915 310.018332,90.0874793 310.117061,59.4864409 L310.117061,59.4864409 Z" id="Fill-10" fill="#FFFFFF"></path>
                <path d="M414.286555,91.0088244 L455.035812,60.2220603 C465.146338,52.3705978 469.040627,47.2831706 469.05891,40.7936966 C469.08085,33.9946797 464.276065,29.8103892 456.988442,29.7848974 C449.697162,29.7630474 443.941659,33.9182044 435.374223,43.6305654 L415.105636,26.7258861 C426.784847,11.7695057 438.28854,3.61214209 459.390834,3.67405066 C483.136857,3.74324258 499.383174,17.8583949 499.328325,38.2518038 L499.328325,38.56863 C499.269819,55.8738941 490.245306,64.8069356 474.072122,76.3547034 L455.4161,89.2790263 L500.257103,89.4137685 L500.183971,113.831234 L414.224393,113.576316 L414.286555,91.0088244" id="Fill-11" fill="#FFFFFF"></path>
                <path d="M576.53398,60.2766855 L576.53398,59.963501 C576.592486,42.8148291 568.398023,30.2692409 556.45188,30.2328241 C544.505736,30.200049 536.548954,42.2321602 536.508731,59.5374244 L536.501418,59.8469672 C536.450225,77.1522314 544.48014,89.544869 556.590831,89.5812858 C568.683239,89.6140609 576.482787,77.4253574 576.53398,60.2766855 Z M506.239317,60.065468 L506.242973,59.7559252 C506.330732,29.1621701 525.963069,3.56480025 556.83948,3.65948394 C587.723205,3.74688426 606.883839,29.1476034 606.796081,59.7486418 L606.796081,60.054543 C606.697352,90.6519397 587.229563,116.24931 556.192261,116.161909 C525.158615,116.063584 506.147901,90.6665064 506.239317,60.065468 L506.239317,60.065468 Z" id="Fill-12" fill="#FFFFFF"></path>
                <path d="M3.12640121,98.0664005 L19.9468054,78.1828268 C30.627762,86.7152835 42.5629358,91.2309669 55.130703,91.2673837 C63.1971838,91.2892338 67.5522058,88.5251985 67.5668323,83.8893397 L67.5668323,83.5761552 C67.5814587,79.0968886 64.019921,76.6169044 49.2874409,73.1718749 C26.1813248,67.8477385 8.35535295,61.307281 8.42482853,39.0493318 L8.42482853,38.7434306 C8.48333428,18.6522812 24.5102542,4.17296084 50.5782241,4.24943612 C69.0441026,4.30406132 83.4621142,9.29316315 95.2254273,18.7542482 L80.1090032,39.8832765 C70.1995912,32.898534 59.3504305,29.1585285 49.7298906,29.1257533 C42.4349545,29.1039033 38.8587903,32.1884064 38.8478204,36.0485873 L38.8441638,36.3581301 C38.833194,41.3035318 42.5483094,43.4812565 57.5916013,46.926286 C82.555275,52.4070146 98.0483299,60.4879029 97.9898242,80.7356446 L97.9861676,81.0415458 C97.9203486,103.139261 80.3466828,116.22746 53.9679012,116.147343 C34.7268214,116.089076 16.4364602,110.00747 3.12640121,98.0664005" id="Fill-13" fill="#6C6B67"></path>
                <path d="M1.98188241,96.2746939 L18.7949734,76.3911202 C29.4795866,84.9235768 41.4147604,89.4429019 53.978871,89.475677 C62.052665,89.5011688 66.4040304,86.7334919 66.4186569,82.097633 L66.4186569,81.7844485 C66.4332833,77.3051819 62.8717455,74.821556 48.1429221,71.3765266 C25.036806,66.0560319 7.21083414,59.5119326 7.27665311,37.2612668 L7.27665311,36.9480823 C7.33881548,16.8605745 23.3620788,2.3812542 49.4337052,2.45772948 C67.8959271,2.51599636 82.3175954,7.50145651 94.0809085,16.9625416 L78.9644844,38.0879282 C69.0550724,31.110469 58.2022551,27.3631801 48.5817152,27.3376884 C41.2904357,27.3158383 37.7106149,30.3966997 37.7033016,34.2605224 L37.6959884,34.5664235 C37.6850186,39.5118252 41.4001339,41.6895499 56.4397692,45.1309377 C81.4107562,50.615308 96.9038111,58.699838 96.8416488,78.9402963 L96.8416488,79.2498391 C96.7758298,101.351196 79.202164,114.435753 52.8197257,114.355636 C33.578646,114.297369 15.2882848,108.219405 1.98188241,96.2746939" id="Fill-14" fill="#FFFFFF"></path>
                <path d="M412.315642,89.8908286 L453.050273,59.1077061 C463.168112,51.2562437 467.055088,46.1651748 467.080684,39.6720591 C467.102624,32.8766839 462.305152,28.6887517 455.010216,28.6669016 C447.71528,28.6486932 441.963433,32.8002086 433.395997,42.5089279 L413.123753,25.6078903 C424.802964,10.6515099 436.310315,2.49414628 457.412609,2.55605484 C481.154975,2.62888845 497.404948,16.7403991 497.350099,37.1410914 L497.350099,37.4469925 C497.291593,54.7558983 488.259767,63.6925815 472.09024,75.2330659 L453.434217,88.1610305 L498.282534,88.292131 L498.205745,112.709596 L412.238854,112.451037 L412.315642,89.8908286" id="Fill-15" fill="#CC272A"></path>
                <path d="M574.555754,59.155048 L574.555754,58.8455052 C574.606946,41.6931916 566.416141,29.1512451 554.473654,29.11847 C542.523854,29.0820532 534.570728,41.1105228 534.526849,58.4194286 L534.523192,58.7289714 C534.468343,76.0378772 542.501914,88.4232315 554.608949,88.4596483 C566.701357,88.4997067 574.500905,76.3110032 574.555754,59.155048 Z M504.257434,58.9474722 L504.257434,58.6379294 C504.352506,28.0405326 523.981187,2.44680444 554.861255,2.53784644 C585.741323,2.62888845 604.90927,28.0296076 604.810542,58.6270044 L604.810542,58.9401888 C604.719127,89.5339439 585.244024,115.131314 554.214035,115.03663 C523.173076,114.94923 504.169676,89.5485106 504.257434,58.9474722 L504.257434,58.9474722 Z" id="Fill-16" fill="#CC272A"></path>
                <path d="M378.429841,58.5760208 L378.429841,58.2701197 C378.477377,41.1105228 370.297541,28.5722179 358.340428,28.5321595 C346.386971,28.4957427 338.448472,40.5314956 338.389966,57.8404014 L338.389966,58.1463026 C338.338773,75.4515667 346.368688,87.8442043 358.472066,87.8769794 C370.582757,87.9097546 378.374992,75.7319761 378.429841,58.5760208 Z M308.135178,58.3684451 L308.135178,58.0552606 C308.222937,27.4578638 327.855274,1.86049393 358.728029,1.95517762 C389.611753,2.04621962 408.776044,27.4469388 408.688286,58.0479772 L408.688286,58.3538783 C408.593214,88.9549168 389.118111,114.548645 358.084465,114.457603 C327.05082,114.366561 308.040106,88.9658418 308.135178,58.3684451 L308.135178,58.3684451 Z" id="Fill-17" fill="#CC272A"></path>
                <path d="M216.17876,89.3081597 L256.928017,58.5250373 C267.034886,50.6699332 270.932832,45.582506 270.954772,39.0930319 C270.973055,32.2940151 266.175583,28.1060829 258.880647,28.0878745 C251.589367,28.0660244 245.833864,32.2175398 237.270084,41.9299008 L216.990527,25.0252215 C228.677051,10.068841 240.188058,1.91147746 261.286696,1.97338602 C285.029062,2.04621962 301.279035,16.1613719 301.216873,36.5547809 L301.216873,36.8643237 C301.16568,54.1695878 292.137511,63.1099126 275.967983,74.6503971 L257.304648,87.5783617 L302.149308,87.7131038 L302.076176,112.123286 L216.112941,111.875652 L216.17876,89.3081597" id="Fill-18" fill="#CC272A"></path>
                <path d="M164.88384,69.0677014 L152.871878,38.2809373 L140.523507,68.9985095 L164.88384,69.0677014 Z M138.702516,2.69443869 L167.721369,2.77819734 L213.63376,111.868368 L181.360523,111.770043 L173.502469,92.4290796 L131.612349,92.3052625 L123.790862,111.598884 L92.1355922,111.5042 L138.702516,2.69443869 L138.702516,2.69443869 Z" id="Fill-19" fill="#DD702B"></path>
                <path d="M0,95.1603398 L16.8204042,75.2767661 C27.5013608,83.805581 39.4365346,88.3176227 52.0006452,88.3576812 C60.0707826,88.383173 64.4258046,85.6154961 64.4367745,80.9759955 L64.4367745,80.6700944 C64.4514009,76.1871861 60.8898631,73.7035602 46.1610396,70.2621725 C23.0549236,64.9380361 5.22895173,58.3939368 5.29477071,36.143271 L5.29842732,35.8337282 C5.35693307,15.7462204 21.383853,1.26325839 47.4518228,1.33973367 C65.9177013,1.39435887 80.3320564,6.37981902 92.0990261,15.8445458 L76.982602,36.9735741 C67.07319,29.9888315 56.2203727,26.2451843 46.6034894,26.2196926 C39.3122099,26.1978425 35.7287324,29.2750622 35.7214192,33.1388849 L35.7177626,33.4520694 C35.7067928,38.397471 39.4219081,40.5715541 54.4615435,44.0129418 C79.4288738,49.4973122 94.9219287,57.5782005 94.8597664,77.8223005 L94.8597664,78.1318433 C94.7939474,100.229559 77.2202816,113.314115 50.8414999,113.233998 C31.6004202,113.183015 13.310059,107.097767 0,95.1603398" id="Fill-20" fill="#DD702B"></path>
                <path d="M624.029682,11.2924456 L622.128245,11.2924456 L622.128245,8.0732003 L624.13938,8.0732003 C625.177857,8.0732003 625.810451,8.08412534 626.018878,8.11325878 C626.432074,8.1824507 626.750199,8.34632631 626.987879,8.61216896 C627.214589,8.87436993 627.327944,9.21668787 627.327944,9.64640613 C627.327944,10.0287825 627.240185,10.3456087 627.068324,10.5968847 C626.896464,10.8518023 626.655128,11.0302446 626.347972,11.1358533 C626.040817,11.2378204 625.269273,11.2924456 624.029682,11.2924456 Z M627.993447,14.0819726 C627.631442,13.6923128 627.174366,13.3354281 626.614905,13.0149603 C627.737484,12.8547264 628.574848,12.4650666 629.141622,11.8386976 C629.70474,11.219612 629.986299,10.433009 629.986299,9.47888884 C629.986299,8.73234441 629.799812,8.06227526 629.426838,7.47960643 C629.05752,6.8969376 628.563878,6.48906942 627.945911,6.26328525 C627.327944,6.0338594 626.337003,5.92096732 624.973087,5.92096732 L619.553992,5.92096732 L619.553992,18.6231477 L622.128245,18.6231477 L622.128245,13.3172197 L622.65114,13.3172197 C623.239854,13.3172197 623.674991,13.3645616 623.94558,13.4592453 C624.223482,13.5575706 624.479445,13.7323713 624.720781,13.9909306 C624.965774,14.2458482 625.419194,14.8722172 626.08104,15.8554708 L627.938598,18.6231477 L631.017463,18.6231477 L629.463404,16.1431635 C628.849093,15.1562682 628.359108,14.4679907 627.993447,14.0819726 Z M624.622053,22.7892298 C618.976247,22.7746631 614.405485,18.2262046 614.390859,12.5998087 C614.405485,6.97341289 618.976247,2.42131268 624.622053,2.41038764 C630.275171,2.42131268 634.842277,6.97341289 634.853246,12.5998087 C634.842277,18.2262046 630.275171,22.7746631 624.622053,22.7892298 Z M624.622053,0.440238669 C617.882921,0.440238669 612.412633,5.88090884 612.412633,12.5998087 C612.412633,19.315067 617.882921,24.7593788 624.622053,24.7593788 C631.368497,24.7593788 636.835129,19.315067 636.835129,12.5998087 C636.835129,5.88090884 631.368497,0.440238669 624.622053,0.440238669 L624.622053,0.440238669 Z" id="Fill-21" fill="#4D4D4C"></path>
            </g>
            <text id="by" font-family="Montserrat-Regular, Montserrat" font-size="52" font-weight="normal" fill="#4A4A4A">
                <tspan x="1513" y="123">by</tspan>
            </text>
        </g>
    </g>
</svg>