<?xml version="1.0" encoding="UTF-8"?>
<svg width="1490px" height="201px" viewBox="0 0 1490 201" version="1.1" xmlns="http://www.w3.org/2000/svg" xmlns:xlink="http://www.w3.org/1999/xlink">
    <!-- Generator: Sketch 42 (36781) - http://www.bohemiancoding.com/sketch -->
    <title>Group 5</title>
    <desc>Created with Sketch.</desc>
    <defs></defs>
    <g id="Page-1" stroke="none" stroke-width="1" fill="none" fill-rule="evenodd">
        <g id="Group-5" transform="translate(0.000000, -3.000000)">
            <g id="Group" transform="translate(0.000000, 3.000000)">
                <path d="M413.732459,36.0842857 C407.626312,39.9703051 404.573285,45.8455083 404.573285,53.7100714 C404.573285,61.5746346 407.626312,67.588622 413.732459,71.7522143 C419.838606,75.9158065 432.837103,80.4031664 452.728339,85.2144286 C472.619576,90.0256907 487.607166,96.7798613 497.691561,105.477143 C507.775955,114.174424 512.818077,126.988844 512.818077,143.920786 C512.818077,160.852728 506.434473,174.592376 493.667075,185.140143 C480.899677,195.68791 464.154282,200.961714 443.430389,200.961714 C413.084689,200.961714 386.162536,190.506628 362.663121,169.596143 L383.201877,144.892286 C402.815561,161.916752 423.169079,170.428857 444.263042,170.428857 C454.810023,170.428857 463.18272,168.162046 469.381384,163.628357 C475.580049,159.094668 478.679334,153.08068 478.679334,145.586214 C478.679334,138.091748 475.765081,132.262807 469.936486,128.099214 C464.107891,123.935622 454.069906,120.142184 439.82223,116.718786 C425.574553,113.295388 414.750182,110.14961 407.348792,107.281357 C399.947402,104.413105 393.378766,100.665928 387.642689,96.0397143 C376.170534,87.3424327 370.434542,74.0191374 370.434542,56.0694286 C370.434542,38.1197198 376.95692,24.2875486 390.00187,14.5725 C403.046821,4.85745142 419.190861,0 438.434476,0 C450.831805,0 463.136431,2.03550345 475.348725,6.10657143 C487.561019,10.1776394 498.107842,15.9140582 506.989511,23.316 L489.503814,48.0198571 C483.767736,42.8384979 475.996393,38.5824452 466.189551,35.2515714 C456.382709,31.9206976 446.714788,30.2552857 437.185498,30.2552857 C427.656207,30.2552857 419.838606,32.1982663 413.732459,36.0842857 Z" id="S" fill="#1B9896"></path>
                <path d="M567.218023,153.477857 L547.789471,197.611714 L512.818077,197.611714 L598.303707,3.58928571 L633.275101,3.58928571 L718.760732,197.611714 L683.789338,197.611714 L664.360785,153.477857 L567.218023,153.477857 Z M651.038349,123.222571 L615.789404,43.282 L580.540459,123.222571 L651.038349,123.222571 Z" id="A" fill="#1B9896"></path>
                <g id="Group-2" fill="#1B9896">
                    <polygon id="I" points="58.6206323 2.39285714 91.3716206 2.39285714 91.3716206 196.415286 58.6206323 196.415286"></polygon>
                    <polyline id="I" points="150.154955 163.910714 150.154955 196.664143 1.3845908 196.664143 1.3845908 163.910714"></polyline>
                    <polyline id="I" points="148.770364 0.945814174 148.770364 33.6992427 0 33.6992427 0 0.945814174"></polyline>
                </g>
                <path d="M249.405889,169.746845 C241.516806,165.007417 172.272879,122.043169 172.272879,73.2987875 C172.272879,39.6727586 186.133534,17.9464286 219.785182,17.9464286 C230.121146,17.9464286 248.941825,30.4801805 256.648095,37.694799 C264.354364,30.4801805 283.175043,17.9464286 293.511007,17.9464286 C327.162656,17.9464286 341.023311,39.6727586 341.023311,73.2987875 C341.023311,122.043169 271.779383,165.007417 263.890301,169.746845 C261.654358,171.082886 259.151226,171.743874 256.648095,171.743874 C254.144963,171.743874 251.641832,171.082886 249.405889,169.746845 Z" id="Fill-180" stroke="#CB272B" stroke-width="26"></path>
            </g>
            <text id="Local-Voting-Resourc" font-family="AlwaysInMyHeart, Always In My Heart" font-size="109" font-weight="normal" fill="#4A4A4A">
                <tspan x="708" y="89">Local Voting Resource</tspan>
            </text>
            <g id="sa2020_typography" transform="translate(801.000000, 106.000000)">
                <g id="Group-3" transform="translate(247.978656, 2.475950)" fill="#6C6B67">
                    <path d="M34.6620725,27.9079177 L34.6638616,27.7563896 C34.6906976,19.3581654 30.6813936,13.2186017 24.8365045,13.2025576 C18.9916155,13.1829481 15.1021791,19.0729359 15.0771321,27.5478156 L15.073554,27.6993437 C15.0502961,36.170658 18.9808811,42.2353489 24.9027001,42.2513931 C30.8245191,42.2692199 34.6406037,36.3043593 34.6620725,27.9079177 Z M0.269006431,27.8045221 L0.274373639,27.6529939 C0.31552223,12.6748831 9.9210347,0.144397403 25.0279349,0.190747186 C40.1384133,0.235314286 49.5131358,12.6695351 49.4684091,27.6494286 L49.4684091,27.8009567 C49.4218933,42.7772848 39.896889,55.3077706 24.7130588,55.2632035 C9.52743948,55.2186364 0.226068771,42.7826329 0.269006431,27.8045221 L0.269006431,27.8045221 Z" id="Fill-1"></path>
                </g>
                <path d="M203.259729,45.4297205 L223.198905,30.3571275 C228.142103,26.5136608 230.05104,24.0214686 230.056407,20.8447257 C230.06893,17.5164547 227.721672,15.4681508 224.15069,15.4574547 C220.583286,15.4467586 217.767291,17.4808011 213.57908,22.2334366 L203.658691,13.9600002 C209.374767,6.63851708 215.004968,2.64530495 225.327897,2.67561058 C236.946112,2.71126426 244.896736,9.61916469 244.864533,19.6039777 L244.864533,19.7555058 C244.841275,28.2268201 240.425852,32.6015266 232.509221,38.2526348 L223.383179,44.581163 L245.324323,44.6453396 L245.288542,56.596453 L203.227525,56.4752305 L203.259729,45.4297205" id="Fill-4" fill="#6C6B67"></path>
                <path d="M186.684003,30.0968556 L186.684003,29.9471101 C186.707261,21.5488859 182.701535,15.4075396 176.856646,15.3932781 C171.011757,15.3754513 167.120531,21.2636565 167.095484,29.7367534 L167.095484,29.8900643 C167.070437,38.3631612 171.001022,44.4260695 176.919263,44.4438963 C182.842871,44.4581578 186.655378,38.4950798 186.684003,30.0968556 Z M152.289147,29.9970253 L152.289147,29.8437145 C152.333874,14.8656037 161.939387,2.33690063 177.048076,2.38146772 C192.154976,2.42603482 201.531488,14.8620383 201.486761,29.8401491 L201.486761,29.9898946 C201.442034,44.9697881 191.915241,57.4984911 176.727833,57.453924 C161.545791,57.4075742 152.24621,44.9769188 152.289147,29.9970253 L152.289147,29.9970253 Z" id="Fill-5" fill="#6C6B67"></path>
                <path d="M107.303003,45.1444911 L127.236812,30.071898 C132.185377,26.230214 134.087158,23.7380218 134.099681,20.5630617 C134.108626,17.233008 131.759579,15.1829214 128.192175,15.174008 C124.624771,15.1615292 121.808776,17.1955716 117.620565,21.9499898 L107.698387,13.6729881 C113.416252,6.35328764 119.044664,2.3618582 129.371171,2.39038114 C140.985808,2.42603482 148.938221,9.33393526 148.906018,19.3187482 L148.906018,19.4702764 C148.880971,27.9433734 144.463759,32.3162972 136.550706,37.9674054 L127.421086,44.2959335 L149.364019,44.3618928 L149.326449,56.3130063 L107.26901,56.1882184 L107.303003,45.1444911" id="Fill-6" fill="#6C6B67"></path>
                <path d="M82.202362,35.2345508 L76.3252697,20.1619578 L70.2835831,35.1988972 L82.202362,35.2345508 Z M69.3926266,2.74335257 L83.5906797,2.7843543 L106.052443,56.1864357 L90.2639078,56.1400859 L86.4191981,46.6704686 L65.9236215,46.6098573 L62.0968025,56.0562998 L46.6106196,56.0081673 L69.3926266,2.74335257 L69.3926266,2.74335257 Z" id="Fill-7" fill="#6C6B67"></path>
                <path d="M81.6405943,34.3574703 L75.7652911,19.2866599 L69.7218154,34.320034 L81.6405943,34.3574703 Z M68.832648,1.86627205 L83.028912,1.90727379 L105.494254,55.3093552 L89.70214,55.2612227 L85.8592194,45.7916054 L65.3618537,45.7327768 L61.5368238,55.1774366 L46.0470628,55.1310868 L68.832648,1.86627205 L68.832648,1.86627205 Z" id="Fill-8" fill="#FFFFFF"></path>
                <path d="M106.741235,44.2674106 L126.676833,29.1966002 C131.62182,25.3531335 133.528968,22.8609413 133.537913,19.6841985 C133.546859,16.3577101 131.1996,14.3058409 127.632196,14.2951448 C124.064792,14.2844487 121.247008,16.3202738 117.058797,21.0729093 L107.136619,12.7976902 C112.852695,5.4779898 118.484685,1.482995 128.807614,1.51330063 C140.424041,1.5489543 148.376453,8.45507205 148.346039,18.4416677 L148.346039,18.5949785 C148.317414,27.0662928 143.90378,31.4409993 135.992516,37.0903249 L126.861107,43.418853 L148.802252,43.4830296 L148.76647,55.4377084 L106.707243,55.3129205 L106.741235,44.2674106" id="Fill-9" fill="#FFFFFF"></path>
                <path d="M186.122235,29.2197751 L186.122235,29.0700296 C186.145493,20.6735881 182.143345,14.5322418 176.294878,14.5144149 C170.446411,14.4983708 166.562341,20.3865759 166.533716,28.8596729 L166.533716,29.0112011 C166.50688,37.484298 170.439254,43.5472063 176.359284,43.5668158 C182.282892,43.5846426 186.095399,37.6179993 186.122235,29.2197751 Z M151.730958,29.1199448 L151.730958,28.966634 C151.773896,13.9867405 161.37583,1.45982011 176.486308,1.50616989 C191.593208,1.5489543 200.971509,13.9831751 200.926782,28.9612859 L200.926782,29.1145967 C200.882056,44.0927076 191.351684,56.6214106 176.169643,56.5768435 C160.985813,56.5304937 151.682653,44.0998383 151.730958,29.1199448 L151.730958,29.1199448 Z" id="Fill-10" fill="#FFFFFF"></path>
                <path d="M202.697961,44.5508573 L222.635348,29.4800469 C227.582124,25.6365803 229.487483,23.1461708 229.496428,19.9694279 C229.507163,16.6411569 227.156326,14.592853 223.590711,14.5803742 C220.023307,14.5696781 217.207312,16.6037205 213.015523,21.3581387 L203.098712,13.0829197 C208.812999,5.76143656 214.441411,1.76822443 224.766129,1.79853006 C236.384345,1.83240106 244.333179,8.74208418 244.306343,18.7251145 L244.306343,18.880208 C244.277718,27.3515223 239.862295,31.7244461 231.949242,37.377337 L222.821411,43.7040824 L244.760767,43.7700418 L244.724985,55.7229379 L202.667547,55.59815 L202.697961,44.5508573" id="Fill-11" fill="#FFFFFF"></path>
                <path d="M282.08075,29.5067872 L282.08075,29.3534764 C282.109375,20.9588175 278.100071,14.8174712 272.255182,14.7996443 C266.410293,14.7836002 262.517278,20.6735881 262.497599,29.1449024 L262.49402,29.2964305 C262.468973,37.7677448 266.397769,43.8342184 272.323167,43.8520452 C278.239618,43.8680894 282.055703,37.9014461 282.08075,29.5067872 Z M247.687684,29.4033915 L247.689473,29.2518634 C247.732411,14.2755353 257.337923,1.74504954 272.444823,1.79139933 C287.555302,1.83418374 296.930024,14.2684045 296.887087,29.248298 L296.887087,29.3980435 C296.838782,44.3761543 287.313777,56.90664 272.128158,56.8638556 C256.944328,56.8157231 247.642957,44.383285 247.687684,29.4033915 L247.687684,29.4033915 Z" id="Fill-12" fill="#FFFFFF"></path>
                <path d="M1.52965416,48.0056989 L9.75937242,38.2722443 C14.9852435,42.4490729 20.8247654,44.6596011 26.9737962,44.6774279 C30.9204828,44.688124 33.0512642,43.3350669 33.0584205,41.0657101 L33.0584205,40.9123993 C33.0655767,38.719698 31.3230234,37.5056902 24.1148636,35.8192712 C12.8097354,33.2129872 4.0880231,30.0112868 4.12201541,19.1155223 L4.12201541,18.9657768 C4.15064052,9.13070928 11.9921308,2.04275777 24.746405,2.08019413 C33.7812044,2.10693439 40.8355042,4.54921145 46.5909398,9.18062443 L39.1949278,19.5237569 C34.3465503,16.104569 29.038382,14.2737526 24.331341,14.2577084 C20.7621479,14.2470123 19.0124383,15.7569456 19.0070711,17.6465907 L19.005282,17.7981188 C18.9999148,20.2190037 20.8176091,21.2850487 28.1778397,22.9714677 C40.3918151,25.6544071 47.9721012,29.6101829 47.9434761,39.5219058 L47.941687,39.6716513 C47.9094838,50.4889777 39.3112173,56.8959439 26.4048722,56.8567249 C16.9907901,56.8282019 8.041866,53.8511197 1.52965416,48.0056989" id="Fill-13" fill="#6C6B67"></path>
                <path d="M0.9696755,47.1286184 L9.19581563,37.3951638 C14.4234758,41.5719924 20.2629976,43.7843032 26.4102394,43.8003474 C30.3605041,43.8128262 32.4894965,42.4579863 32.4966527,40.1886296 L32.4966527,40.0353188 C32.503809,37.8426175 30.7612556,36.626827 23.5548849,34.940408 C12.2497567,32.3359067 3.52804444,29.1324236 3.56024769,18.2402244 L3.56024769,18.0869136 C3.59066186,8.25362876 11.430363,1.16567725 24.1864264,1.20311361 C33.2194367,1.23163656 40.2755256,3.67213093 46.0309612,8.30354392 L38.6349491,18.6448937 C33.7865716,15.2292712 28.4766143,13.3948894 23.7695732,13.3824106 C20.2021693,13.3717145 18.4506705,14.8798651 18.4470924,16.7712928 L18.4435143,16.9210383 C18.4381471,19.3419231 20.2558414,20.4079682 27.6142829,22.0926045 C39.8318364,24.7773266 47.4121226,28.734885 47.3817084,38.6430426 L47.3817084,38.7945708 C47.3495051,49.6136798 38.7512386,56.0188634 25.8431044,55.9796443 C16.4290224,55.9511214 7.48009828,52.9758218 0.9696755,47.1286184" id="Fill-14" fill="#FFFFFF"></path>
                <path d="M201.733653,44.0035734 L221.663883,28.9345456 C226.614238,25.091079 228.516018,22.5988868 228.528542,19.4203612 C228.539276,16.0938729 226.192018,14.0437863 222.622824,14.0330902 C219.053631,14.0241768 216.239426,16.0564366 212.047637,20.8090721 L202.129037,12.5356357 C207.843324,5.21415257 213.473525,1.22094045 223.798243,1.25124608 C235.414669,1.28689976 243.365293,8.19480019 243.338457,18.1813959 L243.338457,18.3311413 C243.309832,26.8042383 238.890831,31.1789448 230.979567,36.8282703 L221.851736,43.1567985 L243.794669,43.2209751 L243.757099,55.1738712 L201.696082,55.0473006 L201.733653,44.0035734" id="Fill-15" fill="#CC272A"></path>
                <path d="M281.112863,28.9577205 L281.112863,28.8061924 C281.13791,20.4097508 277.130395,14.2701872 271.287295,14.254143 C265.440617,14.2363162 261.549392,20.1245214 261.527923,28.5976184 L261.526134,28.7491465 C261.499298,37.2222435 265.429883,43.2851517 271.353491,43.3029785 C277.269943,43.3225881 281.086027,37.3559448 281.112863,28.9577205 Z M246.718008,28.8561076 L246.718008,28.7045794 C246.764524,13.7264686 256.368248,1.19776556 271.476937,1.24233266 C286.585626,1.28689976 295.963927,13.7211205 295.915622,28.6992314 L295.915622,28.8525422 C295.870895,43.8288703 286.342313,56.359356 271.160272,56.3130063 C255.972863,56.2702218 246.675071,43.8360011 246.718008,28.8561076 L246.718008,28.8561076 Z" id="Fill-16" fill="#CC272A"></path>
                <path d="M185.154348,28.6742738 L185.154348,28.5245283 C185.177606,20.1245214 181.175459,13.9867405 175.325202,13.9671309 C169.476735,13.9493041 165.592666,19.8410747 165.564041,28.3141716 L165.564041,28.4639171 C165.538994,36.9352314 169.46779,43.001705 175.389609,43.0177491 C181.315006,43.0337933 185.127512,37.072498 185.154348,28.6742738 Z M150.761282,28.5726608 L150.761282,28.41935 C150.80422,13.4412392 160.409733,0.910753439 175.514844,0.957103223 C190.625322,1.00167032 200.001834,13.4358911 199.958896,28.4157846 L199.958896,28.5655301 C199.91238,43.5454236 190.383798,56.0741266 175.199968,56.0295595 C160.016137,55.9849924 150.714767,43.5507716 150.761282,28.5726608 L150.761282,28.5726608 Z" id="Fill-17" fill="#CC272A"></path>
                <path d="M105.76977,43.7183439 L125.707157,28.6493162 C130.652145,24.8040669 132.559292,22.3136573 132.570027,19.1369145 C132.578972,15.8086435 130.231713,13.7585569 126.66252,13.7496435 C123.095116,13.7389474 120.279122,15.7712071 116.089122,20.5256253 L106.166944,12.2504063 C111.884809,4.92892314 117.516799,0.935711015 127.839728,0.966016643 C139.456154,1.00167032 147.406778,7.91135344 147.376363,17.8943837 L147.376363,18.0459119 C147.351317,26.5172262 142.934105,30.8937153 135.022841,36.5430409 L125.891432,42.871569 L147.832576,42.9375283 L147.796795,54.8868591 L105.737567,54.7656366 L105.76977,43.7183439" id="Fill-18" fill="#CC272A"></path>
                <path d="M80.6727079,33.8101863 L74.7956156,18.7393759 L68.7539289,33.7763153 L80.6727079,33.8101863 Z M67.8629725,1.31898807 L82.0610255,1.3599898 L104.524578,54.7620712 L88.7342536,54.7139387 L84.8895439,45.2461041 L64.3939673,45.1854928 L60.5671483,54.6301526 L45.0791763,54.5838028 L67.8629725,1.31898807 L67.8629725,1.31898807 Z" id="Fill-19" fill="#DD702B"></path>
                <path d="M0,46.5831171 L8.22971827,36.8496625 C13.4555894,41.0247084 19.2951112,43.2334539 25.4423529,43.2530634 C29.3908286,43.2655422 31.52161,41.9107024 31.5269772,39.639563 L31.5269772,39.4898175 C31.5341335,37.2953335 29.7915801,36.079543 22.5852094,34.3949067 C11.2800812,31.7886227 2.55836894,28.5851396 2.59057219,17.6929405 L2.59236125,17.5414123 C2.62098636,7.70812747 10.4624766,0.618393266 23.2167509,0.65582963 C32.2515503,0.682569889 39.304061,3.12306426 45.0612857,7.75625993 L37.6652736,18.0993924 C32.8168961,14.6802045 27.5069388,12.8476054 22.8016868,12.8351266 C19.2342828,12.8244305 17.480995,14.3307985 17.4774169,16.2222262 L17.4756278,16.375537 C17.4702606,18.7964218 19.2879549,19.8606842 26.6463965,21.5453205 C38.8621609,24.2300426 46.4424471,28.1858184 46.4120329,38.0957586 L46.4120329,38.2472868 C46.3798296,49.0646132 37.7815631,55.4697967 24.875218,55.4305777 C15.4611359,55.4056201 6.51221185,52.4267552 0,46.5831171" id="Fill-20" fill="#DD702B"></path>
                <path d="M305.31897,5.52790495 L304.388654,5.52790495 L304.388654,3.95201231 L305.372642,3.95201231 C305.880737,3.95201231 306.190246,3.95736037 306.292223,3.97162184 C306.494388,4.00549283 306.650037,4.08571361 306.766327,4.21584954 C306.877249,4.34420279 306.93271,4.51177508 306.93271,4.72213179 C306.93271,4.90931361 306.889772,5.06440712 306.805686,5.18741231 C306.7216,5.31220019 306.603521,5.39955171 306.453239,5.45124954 C306.302958,5.50116469 305.925464,5.52790495 305.31897,5.52790495 Z M307.258321,6.89344089 C307.081203,6.7026937 306.857569,6.52799067 306.583842,6.37111448 C307.133086,6.29267638 307.542783,6.1019292 307.820088,5.79530755 C308.095605,5.49225127 308.233363,5.10719153 308.233363,4.64012833 C308.233363,4.27467811 308.142121,3.94666426 307.959636,3.66143482 C307.77894,3.37620539 307.537415,3.17654478 307.235063,3.06601837 C306.93271,2.95370928 306.447872,2.89844608 305.780549,2.89844608 L303.129149,2.89844608 L303.129149,9.11644781 L304.388654,9.11644781 L304.388654,6.51907725 L304.644491,6.51907725 C304.932531,6.51907725 305.14543,6.54225214 305.277821,6.58860192 C305.41379,6.63673439 305.539025,6.72230322 305.657104,6.84887379 C305.776971,6.97366166 305.998816,7.28028331 306.322637,7.76160798 L307.231485,9.11644781 L308.737881,9.11644781 L307.977526,7.90244002 C307.676963,7.41933266 307.437228,7.08240539 307.258321,6.89344089 Z M305.608799,11.1558383 C302.846476,11.1487076 300.610139,8.92213526 300.602983,6.1678885 C300.610139,3.41364175 302.846476,1.18528677 305.608799,1.17993872 C308.3747,1.18528677 310.609247,3.41364175 310.614614,6.1678885 C310.609247,8.92213526 308.3747,11.1487076 305.608799,11.1558383 Z M305.608799,0.215506686 C302.311544,0.215506686 299.635097,2.87883656 299.635097,6.1678885 C299.635097,9.45515777 302.311544,12.1202703 305.608799,12.1202703 C308.909631,12.1202703 311.58429,9.45515777 311.58429,6.1678885 C311.58429,2.87883656 308.909631,0.215506686 305.608799,0.215506686 L305.608799,0.215506686 Z" id="Fill-21" fill="#4D4D4C"></path>
            </g>
            <text id="by" font-family="Montserrat-Regular, Montserrat" font-size="28" font-weight="normal" fill="#4A4A4A">
                <tspan x="754" y="143">by</tspan>
            </text>
        </g>
    </g>
</svg>