<?xml version="1.0" encoding="UTF-8"?>
<svg width="81px" height="81px" viewBox="0 0 81 81" version="1.1" xmlns="http://www.w3.org/2000/svg" xmlns:xlink="http://www.w3.org/1999/xlink">
    <!-- Generator: Sketch 42 (36781) - http://www.bohemiancoding.com/sketch -->
    <title>Fill 84</title>
    <desc>Created with Sketch.</desc>
    <defs></defs>
    <g id="Welcome" stroke="none" stroke-width="1" fill="none" fill-rule="evenodd">
        <g id="Home" transform="translate(-471.000000, -960.000000)" fill="#FFFFFF">
            <g id="Fill-84" transform="translate(471.000000, 960.000000)">
                <path d="M20.04426,48.602025 C20.04426,41.145975 24.73821,36.452025 32.19426,36.452025 C39.65031,36.452025 44.34426,41.145975 44.34426,48.602025 L20.04426,48.602025 Z M32.19426,16.202025 C36.66546,16.202025 40.29426,19.830825 40.29426,24.302025 C40.29426,28.773225 36.66546,32.402025 32.19426,32.402025 C27.71901,32.402025 24.09426,28.773225 24.09426,24.302025 C24.09426,19.830825 27.71901,16.202025 32.19426,16.202025 L32.19426,16.202025 Z M78.62751,67.175325 L60.29316,48.840975 C63.20916,43.908075 64.80081,38.282625 64.80081,32.402025 C64.80081,23.747175 61.42716,15.610725 55.30761,9.495225 C49.18806,3.375675 41.05161,0.002025 32.40081,0.002025 C23.74596,0.002025 15.60951,3.375675 9.49401,9.491175 C3.37041,15.610725 0.00081,23.747175 0.00081,32.402025 C0.00081,41.056875 3.37041,49.193325 9.49401,55.308825 C15.60951,61.432425 23.74596,64.802025 32.40081,64.802025 C38.28141,64.802025 43.90686,63.210375 48.83571,60.294375 L67.17411,78.628725 C68.70501,80.159625 70.73811,81.002025 72.90081,81.002025 C75.06351,81.002025 77.09661,80.159625 78.62751,78.628725 C81.78651,75.473775 81.78651,70.334325 78.62751,67.175325 L78.62751,67.175325 Z"></path>
            </g>
        </g>
    </g>
</svg>