<?xml version="1.0" encoding="UTF-8"?>
<svg width="175px" height="33px" viewBox="0 0 175 33" version="1.1" xmlns="http://www.w3.org/2000/svg" xmlns:xlink="http://www.w3.org/1999/xlink">
    <!-- Generator: Sketch 42 (36781) - http://www.bohemiancoding.com/sketch -->
    <title>sa2020_typography</title>
    <desc>Created with Sketch.</desc>
    <defs></defs>
    <g id="Page-1" stroke="none" stroke-width="1" fill="none" fill-rule="evenodd">
        <g id="sa2020_typography">
            <g id="Group-3" transform="translate(138.000000, 2.000000)" fill="#6C6B67">
                <path d="M19.982,15.655 L19.983,15.57 C19.998,10.859 17.757,7.415 14.49,7.406 C11.223,7.395 9.049,10.699 9.035,15.453 L9.033,15.538 C9.02,20.29 11.217,23.692 14.527,23.701 C17.837,23.711 19.97,20.365 19.982,15.655 Z M0.758,15.597 L0.761,15.512 C0.784,7.11 6.153,0.081 14.597,0.107 C23.043,0.132 28.283,7.107 28.258,15.51 L28.258,15.595 C28.232,23.996 22.908,31.025 14.421,31 C5.933,30.975 0.734,23.999 0.758,15.597 L0.758,15.597 Z" id="Fill-1"></path>
            </g>
            <path d="M113.612,26.095 L124.757,17.64 C127.52,15.484 128.587,14.086 128.59,12.304 C128.597,10.437 127.285,9.288 125.289,9.282 C123.295,9.276 121.721,10.417 119.38,13.083 L113.835,8.442 C117.03,4.335 120.177,2.095 125.947,2.112 C132.441,2.132 136.885,6.007 136.867,11.608 L136.867,11.693 C136.854,16.445 134.386,18.899 129.961,22.069 L124.86,25.619 L137.124,25.655 L137.104,32.359 L113.594,32.291 L113.612,26.095" id="Fill-4" fill="#6C6B67"></path>
            <path d="M104.347,17.494 L104.347,17.41 C104.36,12.699 102.121,9.254 98.854,9.246 C95.587,9.236 93.412,12.539 93.398,17.292 L93.398,17.378 C93.384,22.131 95.581,25.532 98.889,25.542 C102.2,25.55 104.331,22.205 104.347,17.494 Z M85.122,17.438 L85.122,17.352 C85.147,8.95 90.516,1.922 98.961,1.947 C107.405,1.972 112.646,8.948 112.621,17.35 L112.621,17.434 C112.596,25.837 107.271,32.865 98.782,32.84 C90.296,32.814 85.098,25.841 85.122,17.438 L85.122,17.438 Z" id="Fill-5" fill="#6C6B67"></path>
            <path d="M59.977,25.935 L71.119,17.48 C73.885,15.325 74.948,13.927 74.955,12.146 C74.96,10.278 73.647,9.128 71.653,9.123 C69.659,9.116 68.085,10.257 65.744,12.924 L60.198,8.281 C63.394,4.175 66.54,1.936 72.312,1.952 C78.804,1.972 83.249,5.847 83.231,11.448 L83.231,11.533 C83.217,16.286 80.748,18.739 76.325,21.909 L71.222,25.459 L83.487,25.496 L83.466,32.2 L59.958,32.13 L59.977,25.935" id="Fill-6" fill="#6C6B67"></path>
            <path d="M45.947,20.376 L42.662,11.921 L39.285,20.356 L45.947,20.376 Z M38.787,2.15 L46.723,2.173 L59.278,32.129 L50.453,32.103 L48.304,26.791 L36.848,26.757 L34.709,32.056 L26.053,32.029 L38.787,2.15 L38.787,2.15 Z" id="Fill-7" fill="#6C6B67"></path>
            <path d="M45.633,19.884 L42.349,11.43 L38.971,19.863 L45.633,19.884 Z M38.474,1.658 L46.409,1.681 L58.966,31.637 L50.139,31.61 L47.991,26.298 L36.534,26.265 L34.396,31.563 L25.738,31.537 L38.474,1.658 L38.474,1.658 Z" id="Fill-8" fill="#FFFFFF"></path>
            <path d="M59.663,25.443 L70.806,16.989 C73.57,14.833 74.636,13.435 74.641,11.653 C74.646,9.787 73.334,8.636 71.34,8.63 C69.346,8.624 67.771,9.766 65.43,12.432 L59.884,7.79 C63.079,3.684 66.227,1.443 71.997,1.46 C78.49,1.48 82.935,5.354 82.918,10.956 L82.918,11.042 C82.902,15.794 80.435,18.248 76.013,21.417 L70.909,24.967 L83.173,25.003 L83.153,31.709 L59.644,31.639 L59.663,25.443" id="Fill-9" fill="#FFFFFF"></path>
            <path d="M104.033,17.002 L104.033,16.918 C104.046,12.208 101.809,8.763 98.54,8.753 C95.271,8.744 93.1,12.047 93.084,16.8 L93.084,16.885 C93.069,21.638 95.267,25.039 98.576,25.05 C101.887,25.06 104.018,21.713 104.033,17.002 Z M84.81,16.946 L84.81,16.86 C84.834,8.457 90.201,1.43 98.647,1.456 C107.091,1.48 112.333,8.455 112.308,16.857 L112.308,16.943 C112.283,25.345 106.956,32.373 98.47,32.348 C89.983,32.322 84.783,25.349 84.81,16.946 L84.81,16.946 Z" id="Fill-10" fill="#FFFFFF"></path>
            <path d="M113.298,25.602 L124.442,17.148 C127.207,14.992 128.272,13.595 128.277,11.813 C128.283,9.946 126.969,8.797 124.976,8.79 C122.982,8.784 121.408,9.925 119.065,12.592 L113.522,7.95 C116.716,3.843 119.862,1.603 125.633,1.62 C132.127,1.639 136.57,5.515 136.555,11.115 L136.555,11.202 C136.539,15.954 134.071,18.407 129.648,21.578 L124.546,25.127 L136.809,25.164 L136.789,31.869 L113.281,31.799 L113.298,25.602" id="Fill-11" fill="#FFFFFF"></path>
            <path d="M157.669,17.163 L157.669,17.077 C157.685,12.368 155.444,8.923 152.177,8.913 C148.91,8.904 146.734,12.208 146.723,16.96 L146.721,17.045 C146.707,21.797 148.903,25.2 152.215,25.21 C155.522,25.219 157.655,21.872 157.669,17.163 Z M138.445,17.105 L138.446,17.02 C138.47,8.619 143.839,1.59 152.283,1.616 C160.729,1.64 165.969,8.615 165.945,17.018 L165.945,17.102 C165.918,25.504 160.594,32.533 152.106,32.509 C143.619,32.482 138.42,25.508 138.445,17.105 L138.445,17.105 Z" id="Fill-12" fill="#FFFFFF"></path>
            <path d="M0.855,27.54 L5.455,22.08 C8.376,24.423 11.64,25.663 15.077,25.673 C17.283,25.679 18.474,24.92 18.478,23.647 L18.478,23.561 C18.482,22.331 17.508,21.65 13.479,20.704 C7.16,19.242 2.285,17.446 2.304,11.334 L2.304,11.25 C2.32,5.733 6.703,1.757 13.832,1.778 C18.882,1.793 22.825,3.163 26.042,5.761 L21.908,11.563 C19.198,9.645 16.231,8.618 13.6,8.609 C11.605,8.603 10.627,9.45 10.624,10.51 L10.623,10.595 C10.62,11.953 11.636,12.551 15.75,13.497 C22.577,15.002 26.814,17.221 26.798,22.781 L26.797,22.865 C26.779,28.933 21.973,32.527 14.759,32.505 C9.497,32.489 4.495,30.819 0.855,27.54" id="Fill-13" fill="#6C6B67"></path>
            <path d="M0.542,27.048 L5.14,21.588 C8.062,23.931 11.326,25.172 14.762,25.181 C16.97,25.188 18.16,24.428 18.164,23.155 L18.164,23.069 C18.168,21.839 17.194,21.157 13.166,20.211 C6.847,18.75 1.972,16.953 1.99,10.843 L1.99,10.757 C2.007,5.241 6.389,1.265 13.519,1.286 C18.568,1.302 22.512,2.671 25.729,5.269 L21.595,11.07 C18.885,9.154 15.917,8.125 13.286,8.118 C11.292,8.112 10.313,8.958 10.311,10.019 L10.309,10.103 C10.306,11.461 11.322,12.059 15.435,13.004 C22.264,14.51 26.501,16.73 26.484,22.288 L26.484,22.373 C26.466,28.442 21.66,32.035 14.445,32.013 C9.183,31.997 4.181,30.328 0.542,27.048" id="Fill-14" fill="#FFFFFF"></path>
            <path d="M112.759,25.295 L123.899,16.842 C126.666,14.686 127.729,13.288 127.736,11.505 C127.742,9.639 126.43,8.489 124.435,8.483 C122.44,8.478 120.867,9.618 118.524,12.284 L112.98,7.643 C116.174,3.536 119.321,1.296 125.092,1.313 C131.585,1.333 136.029,5.208 136.014,10.81 L136.014,10.894 C135.998,15.647 133.528,18.101 129.106,21.27 L124.004,24.82 L136.269,24.856 L136.248,31.561 L112.738,31.49 L112.759,25.295" id="Fill-15" fill="#CC272A"></path>
            <path d="M157.128,16.855 L157.128,16.77 C157.142,12.06 154.902,8.616 151.636,8.607 C148.368,8.597 146.193,11.9 146.181,16.653 L146.18,16.738 C146.165,21.491 148.362,24.892 151.673,24.902 C154.98,24.913 157.113,21.566 157.128,16.855 Z M137.903,16.798 L137.903,16.713 C137.929,8.311 143.297,1.283 151.742,1.308 C160.187,1.333 165.429,8.308 165.402,16.71 L165.402,16.796 C165.377,25.197 160.051,32.226 151.565,32.2 C143.076,32.176 137.879,25.201 137.903,16.798 L137.903,16.798 Z" id="Fill-16" fill="#CC272A"></path>
            <path d="M103.492,16.696 L103.492,16.612 C103.505,11.9 101.268,8.457 97.998,8.446 C94.729,8.436 92.558,11.741 92.542,16.494 L92.542,16.578 C92.528,21.33 94.724,24.733 98.034,24.742 C101.346,24.751 103.477,21.407 103.492,16.696 Z M84.268,16.639 L84.268,16.553 C84.292,8.151 89.661,1.122 98.104,1.148 C106.55,1.173 111.791,8.148 111.767,16.551 L111.767,16.635 C111.741,25.038 106.415,32.066 97.928,32.041 C89.441,32.016 84.242,25.041 84.268,16.639 L84.268,16.639 Z" id="Fill-17" fill="#CC272A"></path>
            <path d="M59.12,25.135 L70.264,16.682 C73.028,14.525 74.094,13.128 74.1,11.346 C74.105,9.479 72.793,8.329 70.798,8.324 C68.804,8.318 67.23,9.458 64.888,12.125 L59.342,7.483 C62.538,3.376 65.686,1.136 71.456,1.153 C77.949,1.173 82.393,5.049 82.376,10.649 L82.376,10.734 C82.362,15.486 79.893,17.941 75.471,21.11 L70.367,24.66 L82.631,24.697 L82.611,31.4 L59.102,31.332 L59.12,25.135" id="Fill-18" fill="#CC272A"></path>
            <path d="M45.092,19.577 L41.807,11.123 L38.43,19.558 L45.092,19.577 Z M37.932,1.351 L45.868,1.374 L58.424,31.33 L49.598,31.303 L47.449,25.992 L35.993,25.958 L33.854,31.256 L25.197,31.23 L37.932,1.351 L37.932,1.351 Z" id="Fill-19" fill="#DD702B"></path>
            <path d="M0,26.742 L4.6,21.282 C7.521,23.624 10.785,24.863 14.221,24.874 C16.428,24.881 17.619,24.121 17.622,22.847 L17.622,22.763 C17.626,21.532 16.652,20.85 12.624,19.905 C6.305,18.443 1.43,16.646 1.448,10.536 L1.449,10.451 C1.465,4.935 5.848,0.958 12.977,0.979 C18.027,0.994 21.969,2.363 25.187,4.962 L21.053,10.764 C18.343,8.846 15.375,7.818 12.745,7.811 C10.751,7.805 9.771,8.65 9.769,9.711 L9.768,9.797 C9.765,11.155 10.781,11.752 14.894,12.697 C21.722,14.203 25.959,16.422 25.942,21.981 L25.942,22.066 C25.924,28.134 21.118,31.727 13.904,31.705 C8.642,31.691 3.64,30.02 0,26.742" id="Fill-20" fill="#DD702B"></path>
            <path d="M170.658,3.712 L170.138,3.712 L170.138,2.828 L170.688,2.828 C170.972,2.828 171.145,2.831 171.202,2.839 C171.315,2.858 171.402,2.903 171.467,2.976 C171.529,3.048 171.56,3.142 171.56,3.26 C171.56,3.365 171.536,3.452 171.489,3.521 C171.442,3.591 171.376,3.64 171.292,3.669 C171.208,3.697 170.997,3.712 170.658,3.712 Z M171.742,4.478 C171.643,4.371 171.518,4.273 171.365,4.185 C171.672,4.141 171.901,4.034 172.056,3.862 C172.21,3.692 172.287,3.476 172.287,3.214 C172.287,3.009 172.236,2.825 172.134,2.665 C172.033,2.505 171.898,2.393 171.729,2.331 C171.56,2.268 171.289,2.237 170.916,2.237 L169.434,2.237 L169.434,5.725 L170.138,5.725 L170.138,4.268 L170.281,4.268 C170.442,4.268 170.561,4.281 170.635,4.307 C170.711,4.334 170.781,4.382 170.847,4.453 C170.914,4.523 171.038,4.695 171.219,4.965 L171.727,5.725 L172.569,5.725 L172.144,5.044 C171.976,4.773 171.842,4.584 171.742,4.478 Z M170.82,6.869 C169.276,6.865 168.026,5.616 168.022,4.071 C168.026,2.526 169.276,1.276 170.82,1.273 C172.366,1.276 173.615,2.526 173.618,4.071 C173.615,5.616 172.366,6.865 170.82,6.869 Z M170.82,0.732 C168.977,0.732 167.481,2.226 167.481,4.071 C167.481,5.915 168.977,7.41 170.82,7.41 C172.665,7.41 174.16,5.915 174.16,4.071 C174.16,2.226 172.665,0.732 170.82,0.732 L170.82,0.732 Z" id="Fill-21" fill="#4D4D4C"></path>
        </g>
    </g>
</svg>