<?xml version="1.0" encoding="UTF-8"?>
<svg width="734px" height="748px" viewBox="0 0 734 748" version="1.1" xmlns="http://www.w3.org/2000/svg" xmlns:xlink="http://www.w3.org/1999/xlink">
    <!-- Generator: Sketch 42 (36781) - http://www.bohemiancoding.com/sketch -->
    <title>Group 10</title>
    <desc>Created with Sketch.</desc>
    <defs></defs>
    <g id="Page-1" stroke="none" stroke-width="1" fill="none" fill-rule="evenodd">
        <g id="Group-8" fill="#1B9896">
            <g id="Group-10">
                <path d="M73.321875,74.7547497 L73.321875,523.283248 L219.965625,523.283248 L219.965625,598.037998 L317.740345,523.283248 L659.896875,523.283248 L659.896875,74.7547497 L73.321875,74.7547497 Z M146.64375,747.547497 L146.64375,598.037998 L73.321875,598.037998 C32.8848609,598.037998 0,564.510493 0,523.283248 L0,74.7547497 C0,33.5275053 32.8848609,0 73.321875,0 L659.896875,0 C700.333889,0 733.21875,33.5275053 733.21875,74.7547497 L733.21875,523.283248 C733.21875,564.510493 700.333889,598.037998 659.896875,598.037998 L342.15653,598.037998 L146.64375,747.547497 Z" id="Fill-317"></path>
                <path d="M199,337 C227.302244,402.933689 291.67885,449.132125 366.833772,449.132125 C441.988694,449.132125 506.3653,402.933689 534.667544,337 L199,337 Z" id="Fill-318"></path>
                <path d="M302.652344,196.721719 C302.652344,222.512107 282.085558,243.443437 256.826172,243.443437 C231.566786,243.443437 211,222.512107 211,196.721719 C211,170.93133 231.566786,150 256.826172,150 C282.085558,150 302.652344,170.93133 302.652344,196.721719" id="Fill-319"></path>
                <path d="M522.652344,196.721719 C522.652344,222.512107 502.085558,243.443437 476.826172,243.443437 C451.566786,243.443437 431,222.512107 431,196.721719 C431,170.93133 451.566786,150 476.826172,150 C502.085558,150 522.652344,170.93133 522.652344,196.721719" id="Fill-320"></path>
            </g>
        </g>
    </g>
</svg>