<?xml version="1.0" encoding="UTF-8"?>
<svg width="73px" height="57px" viewBox="0 0 73 57" version="1.1" xmlns="http://www.w3.org/2000/svg" xmlns:xlink="http://www.w3.org/1999/xlink">
    <!-- Generator: Sketch 42 (36781) - http://www.bohemiancoding.com/sketch -->
    <title>Fill 181 + Fill 182</title>
    <desc>Created with Sketch.</desc>
    <defs></defs>
    <g id="Welcome" stroke="none" stroke-width="1" fill="none" fill-rule="evenodd">
        <g id="Home" transform="translate(-181.000000, -973.000000)" fill="#FFFFFF">
            <g id="Fill-181-+-Fill-182" transform="translate(181.000000, 973.000000)">
                <path d="M15.7226248,18.8587143 L3.14452496,18.8587143 C1.40874718,18.8587143 0,20.2667143 0,22.0015714 L0,53.4301429 C0,55.165 1.40874718,56.573 3.14452496,56.573 L15.7226248,56.573 C17.4584026,56.573 18.8671498,55.165 18.8671498,53.4301429 L18.8671498,22.0015714 C18.8671498,20.2667143 17.4584026,18.8587143 15.7226248,18.8587143" id="Fill-181"></path>
                <path d="M71.5932865,16.8454 C70.9958267,16.1319714 70.1122152,15.7171143 69.1782913,15.7171143 L50.3111415,15.7171143 L50.3111415,3.14568571 C50.3111415,1.41082857 48.9055389,0.00282857143 47.1666166,0.00282857143 L37.7330417,0.00282857143 C36.4783762,0.00282857143 35.3400582,0.750828571 34.8463678,1.9074 L25.1549419,22.0028286 L25.1549419,51.7876857 L36.5664229,56.3479714 C36.9374769,56.4956857 37.333687,56.5742571 37.7330417,56.5742571 L62.8892414,56.5742571 C64.4111915,56.5742571 65.7130248,55.4868286 65.9834539,53.9908286 L72.2725039,19.4194 C72.4423082,18.5048286 72.1907462,17.5619714 71.5932865,16.8454" id="Fill-182"></path>
            </g>
        </g>
    </g>
</svg>